<svg width="70" height="70" viewBox="0 0 70 70" fill="none" xmlns="http://www.w3.org/2000/svg">
<path d="M2.25801 9.03204H38.3862V11.2901H40.6442V5.64503C40.6442 2.53236 38.1118 0 34.9992 0H5.64503C2.53236 0 0 2.53236 0 5.64503V56.4503H2.25801V9.03204ZM2.25801 5.64503C2.25801 3.77765 3.77765 2.25801 5.64503 2.25801H34.9992C36.8665 2.25801 38.3862 3.77765 38.3862 5.64503V6.77403H2.25801V5.64503Z" fill="#381DDB"/>
<path d="M0 64.3552C0 67.4679 2.53236 70.0003 5.64503 70.0003H34.9992C38.1118 70.0003 40.6442 67.4679 40.6442 64.3552V58.7102H0V64.3552ZM2.25801 60.9682H38.3862V64.3552C38.3862 66.2226 36.8665 67.7423 34.9992 67.7423H5.64503C3.77765 67.7423 2.25801 66.2226 2.25801 64.3552V60.9682Z" fill="#381DDB"/>
<path d="M25.9697 63.2236H14.6797V65.4817H25.9697V63.2236Z" fill="#381DDB"/>
<path d="M50.8033 34.9995C47.0674 34.9995 44.0293 38.0377 44.0293 41.7735C44.0293 45.5094 47.0674 48.5476 50.8033 48.5476C54.5392 48.5476 57.5774 45.5094 57.5774 41.7735C57.5774 38.0377 54.5392 34.9995 50.8033 34.9995ZM50.8033 46.2896C48.3127 46.2896 46.2873 44.2641 46.2873 41.7735C46.2873 39.283 48.3127 37.2575 50.8033 37.2575C53.2939 37.2575 55.3193 39.283 55.3193 41.7735C55.3193 44.2641 53.2939 46.2896 50.8033 46.2896Z" fill="#381DDB"/>
<path d="M19.1958 20.3199C16.0831 20.3199 13.5508 22.8523 13.5508 25.965C13.5508 29.0776 16.0831 31.61 19.1958 31.61C22.3085 31.61 24.8408 29.0776 24.8408 25.965C24.8408 22.8523 22.3085 20.3199 19.1958 20.3199ZM19.1958 29.352C17.3284 29.352 15.8088 27.8324 15.8088 25.965C15.8088 24.0976 17.3284 22.578 19.1958 22.578C21.0632 22.578 22.5828 24.0976 22.5828 25.965C22.5828 27.8324 21.0632 29.352 19.1958 29.352Z" fill="#381DDB"/>
<path d="M23.1998 36.5259C23.4076 36.4469 23.6142 36.36 23.8196 36.2663L27.3196 38.5999L31.822 34.0974L29.4884 30.5975C29.5821 30.3909 29.669 30.1843 29.7481 29.9777L33.8689 29.1535V22.7859L29.7481 21.9617C29.5889 21.5496 29.4014 21.1376 29.1881 20.73L27.1897 21.7811C27.4505 22.279 27.6628 22.7836 27.8163 23.2782L28.0162 23.9183L31.6109 24.6375V27.3019L28.015 28.0211L27.8152 28.6613C27.6616 29.1558 27.4505 29.6593 27.1886 30.1583L26.877 30.7522L28.9148 33.8095L27.0317 35.6939L23.9743 33.6549L23.3816 33.9665C22.886 34.2273 22.3813 34.4384 21.8834 34.5942L21.2444 34.794L20.5252 38.3888H17.8596L17.1404 34.794L16.5014 34.5942C16.0035 34.4384 15.4989 34.2273 15.0032 33.9665L14.4105 33.6549L11.3532 35.6939L8.81516 33.1547L7.21875 34.7511L11.0664 38.5988L14.5663 36.2651C14.7718 36.3589 14.9784 36.4458 15.1861 36.5248L16.0103 40.6457H22.3768L23.1998 36.5259Z" fill="#381DDB"/>
<path d="M4.51953 22.7814V29.149L8.6404 29.9731C8.79959 30.3852 8.987 30.7973 9.20039 31.2049L11.1987 30.1538C10.9379 29.6559 10.7257 29.1512 10.5721 28.6567L10.3723 28.0166L6.77754 27.2974V24.6329L10.3734 23.9138L10.5733 23.2736C10.7268 22.7791 10.9379 22.2756 11.1999 21.7765L11.5115 21.1827L9.47361 18.1253L11.3579 16.241L14.4164 18.28L15.0091 17.9673C15.5036 17.7076 16.0072 17.4965 16.5051 17.3407L17.1441 17.1409L17.8632 13.5461H20.5288L21.248 17.1409L21.887 17.3407C22.3849 17.4965 22.8896 17.7076 23.3829 17.9673L23.9757 18.28L27.0342 16.241L29.5733 18.7802L31.1697 17.1838L27.3232 13.3361L23.8221 15.6686C23.6155 15.5749 23.41 15.4891 23.2023 15.409L22.3793 11.2881H16.0128L15.1886 15.409C14.9809 15.4891 14.7754 15.5749 14.5688 15.6686L11.0678 13.3361L6.56642 17.8374L8.90007 21.3374C8.80636 21.544 8.71943 21.7506 8.6404 21.9572L4.51953 22.7814Z" fill="#381DDB"/>
<path d="M20.3205 42.9021H18.0625V45.1601H20.3205V42.9021Z" fill="#381DDB"/>
<path d="M20.3205 47.4158H18.0625V49.6738H20.3205V47.4158Z" fill="#381DDB"/>
<path d="M20.3205 51.9355H18.0625V54.1936H20.3205V51.9355Z" fill="#381DDB"/>
<path d="M51.9357 18.0627H49.6777V20.3208H51.9357V18.0627Z" fill="#381DDB"/>
<path d="M51.9357 13.5508H49.6777V15.8088H51.9357V13.5508Z" fill="#381DDB"/>
<path d="M51.9357 9.03076H49.6777V11.2888H51.9357V9.03076Z" fill="#381DDB"/>
<path d="M69.9997 46.0896V37.464L64.4314 36.352C64.3016 36.0257 64.1582 35.7028 64.0035 35.3844L61.9725 36.3723C62.1847 36.8103 62.3721 37.2574 62.5257 37.7045L62.7379 38.3153L67.7417 39.3156V44.2369L62.7379 45.2383L62.5257 45.8491C62.371 46.2962 62.1847 46.7444 61.9725 47.1813L61.6891 47.7628L64.5217 52.0112L61.041 55.4919L56.7914 52.6604L56.21 52.9437C55.7731 53.156 55.3249 53.3434 54.8778 53.4969L54.267 53.7092L53.2678 58.7118H48.3453L47.3439 53.7081L46.7331 53.4958C46.286 53.3411 45.8378 53.1549 45.4009 52.9426L44.8194 52.6592L40.5699 55.4908L36.4343 51.3564L34.8379 52.9528L40.2831 58.3968L45.008 55.2469C45.131 55.3 45.2552 55.3519 45.3794 55.4016L46.4938 60.9698H55.1205L56.2326 55.4016C56.3568 55.3519 56.481 55.3 56.604 55.2469L61.3289 58.3968L67.4289 52.2991L64.2779 47.5731C64.3309 47.45 64.3829 47.3258 64.4326 47.2016L69.9997 46.0896Z" fill="#381DDB"/>
<path d="M34.186 31.2534L37.337 35.9783C37.284 36.1014 37.232 36.2255 37.1824 36.3497L31.6152 37.4629V46.0897L37.1835 47.2017C37.3133 47.528 37.4567 47.8509 37.6114 48.1682L39.6425 47.1803C39.4302 46.7434 39.2428 46.2951 39.0893 45.8481L38.877 45.2373L33.8732 44.237V39.3145L38.877 38.3131L39.0893 37.7023C39.2439 37.2552 39.4302 36.8081 39.6425 36.3701L39.9258 35.7875L37.0932 31.5402L40.5739 28.0594L44.8223 30.891L45.4049 30.6087C45.8407 30.3965 46.2901 30.2091 46.7394 30.0533L47.3479 29.841L48.346 24.8407H53.2696L54.2699 29.8421L54.8784 30.0544C55.3266 30.2102 55.7771 30.3976 56.2129 30.6099L56.7955 30.8921L61.0439 28.0606L65.1794 32.1961L66.7759 30.5997L61.3307 25.1556L56.6046 28.3056C56.4827 28.2525 56.3585 28.2017 56.2343 28.152L55.12 22.5826H46.4955L45.3823 28.1509C45.2581 28.2006 45.134 28.2514 45.012 28.3044L40.286 25.1545L34.186 31.2534Z" fill="#381DDB"/>
</svg>
