<svg width="70" height="70" viewBox="0 0 70 70" fill="none" xmlns="http://www.w3.org/2000/svg">
<g clip-path="url(#clip0)">
<path d="M49.6777 19.1936H51.9358V21.4517H49.6777V19.1936Z" fill="#381DDB"/>
<path d="M4.51758 46.29H6.77564V48.5481H4.51758V46.29Z" fill="#381DDB"/>
<path d="M64.3548 19.1935H56.3375C55.8127 16.6207 53.5331 14.6774 50.8065 14.6774C48.0798 14.6774 45.8002 16.6207 45.2754 19.1935H41.3872C39.8794 19.1935 38.4615 19.7818 37.3959 20.8474L34.3958 23.8464C33.7646 24.4776 32.8919 24.8387 31.9999 24.8387H30.4839V19.1935H31.6129C32.8583 19.1935 33.871 18.1808 33.871 16.9355V5.64515C33.871 4.3998 32.8583 3.38708 31.6129 3.38708H6.77419C5.52884 3.38708 4.51613 4.3998 4.51613 5.64515V16.9355C4.51613 18.1808 5.52884 19.1935 6.77419 19.1935H7.90323V25.3172C5.91253 26.1916 4.51613 28.1751 4.51613 30.4839V41.8883C1.94328 42.4131 0 44.6938 0 47.4193C0 50.1449 1.94328 52.4256 4.51613 52.9504V58.7097C4.51613 61.8222 7.04873 64.3548 10.1613 64.3548H20.3226C20.3226 65.6002 21.3353 66.6129 22.5806 66.6129H36.129C37.3744 66.6129 38.3871 65.6002 38.3871 64.3548H44.0323C47.1448 64.3548 49.6774 61.8222 49.6774 58.7097V54.1935C49.6774 52.3263 51.1973 50.8064 53.0645 50.8064H58.7097V48.5484H53.0645C49.952 48.5484 47.4194 51.081 47.4194 54.1935V58.7097C47.4194 60.5769 45.8995 62.0968 44.0323 62.0968H38.3871C38.3871 60.8514 37.3744 59.8387 36.129 59.8387H35.8512L31.8792 45.938C31.56 44.8145 30.5214 44.0322 29.3548 44.0322C28.1883 44.0322 27.1497 44.8145 26.8305 45.938L22.8585 59.8387H22.5806C21.3353 59.8387 20.3226 60.8514 20.3226 62.0968H10.1613C8.29409 62.0968 6.77419 60.5769 6.77419 58.7097V52.9504C9.34704 52.4256 11.2903 50.146 11.2903 47.4193C11.2903 44.6927 9.34704 42.4131 6.77419 41.8883V30.4839C6.77419 28.6167 8.29409 27.0968 10.1613 27.0968H14.6774V24.8387H10.1613V19.1935H28.2258V24.8387H16.9355V27.0968H31.9999C33.5077 27.0968 34.9256 26.5085 35.9912 25.4429L38.9913 22.4439C39.6225 21.8127 40.4952 21.4516 41.3872 21.4516H45.2754C45.8002 24.0244 48.0798 25.9677 50.8065 25.9677C53.5331 25.9677 55.8127 24.0244 56.3375 21.4516H64.3548C66.222 21.4516 67.7419 22.9715 67.7419 24.8387V45.1613C67.7419 47.0285 66.222 48.5484 64.3548 48.5484H60.9677V50.8064H64.3548C67.4674 50.8064 70 48.2738 70 45.1613V24.8387C70 21.7261 67.4674 19.1935 64.3548 19.1935ZM29.0015 46.5566C29.0919 46.244 29.6189 46.244 29.7093 46.5566L33.5027 59.8387H25.2059L29.0015 46.5566ZM22.5806 62.0968H36.129L36.1301 64.3548H22.5806V62.0968ZM9.03226 47.4193C9.03226 49.2865 7.51236 50.8064 5.64516 50.8064C3.77796 50.8064 2.25806 49.2865 2.25806 47.4193C2.25806 45.5521 3.77796 44.0322 5.64516 44.0322C7.51236 44.0322 9.03226 45.5521 9.03226 47.4193ZM27.0968 16.9355V12.4193H31.614L31.6151 16.9355H27.0968ZM18.0645 10.1613H13.5484V5.64515H18.0645V10.1613ZM20.3226 5.64515H24.8387V10.1613H20.3226V5.64515ZM18.0645 12.4193V16.9355H13.5484V12.4193H18.0645ZM20.3226 12.4193H24.8387V16.9355H20.3226V12.4193ZM31.614 10.1613H27.0968V5.64515H31.6129L31.614 10.1613ZM11.2903 5.64515V10.1613H6.77419V5.64515H11.2903ZM6.77419 12.4193H11.2903V16.9355H6.77419V12.4193ZM50.8065 23.7097C48.9392 23.7097 47.4194 22.1898 47.4194 20.3226C47.4194 18.4554 48.9392 16.9355 50.8065 16.9355C52.6737 16.9355 54.1935 18.4554 54.1935 20.3226C54.1935 22.1898 52.6737 23.7097 50.8065 23.7097Z" fill="#381DDB"/>
</g>
<defs>
<clipPath id="clip0">
<rect width="70" height="70" fill="white"/>
</clipPath>
</defs>
</svg>
