<svg width="30" height="30" viewBox="0 0 30 30" fill="none" xmlns="http://www.w3.org/2000/svg">
<path fill-rule="evenodd" clip-rule="evenodd" d="M13.2712 22.3043C12.7044 22.4681 12.0911 22.5508 11.4477 22.5508C10.7311 22.5508 10.0423 22.4687 9.40002 22.3061C8.15717 21.9926 7.23877 21.398 6.80979 20.6319C6.6249 20.3008 6.53125 19.9479 6.53125 19.5824C6.53125 19.206 6.62128 18.8241 6.79891 18.4459C7.47985 16.9946 9.27495 16.0182 11.2634 16.0182H11.3202C11.1589 15.7336 11.0809 15.4387 11.0809 15.1288C11.0809 14.9747 11.1015 14.8176 11.1425 14.6575C9.05683 14.6104 7.49617 13.0829 7.49617 11.0691C7.49617 9.64743 8.63268 8.26199 10.258 7.7025C10.7444 7.53453 11.2404 7.44873 11.728 7.44873H16.1883C16.3399 7.44873 16.4747 7.54722 16.5218 7.69162C16.5689 7.83542 16.5169 7.99372 16.3943 8.08254L15.3968 8.80457C15.3369 8.84686 15.265 8.86982 15.1907 8.86982H14.8336C15.2946 9.42267 15.5647 10.2112 15.5647 11.0963C15.5647 12.0733 15.0705 12.9971 14.1708 13.701C13.476 14.2424 13.4488 14.3917 13.4488 14.7004C13.4573 14.8702 13.9412 15.4242 14.4753 15.8019C15.7194 16.6816 16.1822 17.545 16.1822 18.9854C16.1816 20.4905 15.0391 21.7908 13.2712 22.3043ZM23.3439 14.6539C23.3439 14.8472 23.1862 15.0043 22.9934 15.0043H20.4588V17.5402C20.4588 17.7335 20.3011 17.8906 20.1096 17.8906H19.3875C19.193 17.8906 19.0359 17.7335 19.0359 17.5402V15.0043H16.5031C16.3097 15.0043 16.1526 14.8484 16.1526 14.6539V13.9331C16.1526 13.7397 16.3097 13.5814 16.5031 13.5814H19.0359V11.048C19.0359 10.854 19.193 10.6975 19.3875 10.6975H20.1096C20.3011 10.6975 20.4588 10.854 20.4588 11.048V13.5814H22.9928C23.1856 13.5814 23.3433 13.7385 23.3433 13.9319L23.3439 14.6539ZM12.9909 17.4857C12.9343 17.4481 12.8769 17.4087 12.8183 17.3684L12.8181 17.3683C12.776 17.3393 12.7331 17.3098 12.6894 17.2803C12.3855 17.1873 12.0629 17.1389 11.7324 17.1347H11.6925C10.1735 17.1347 8.84184 18.0537 8.84184 19.1026C8.84184 20.2445 9.98318 21.1369 11.4393 21.1369C13.3601 21.1369 14.3335 20.4735 14.3335 19.1684C14.3335 19.0452 14.319 18.9171 14.2881 18.7884C14.1587 18.284 13.6972 17.9685 12.999 17.4913L12.9909 17.4857ZM11.9152 13.5053H11.914H11.9001C10.9352 13.4751 9.97085 12.3349 9.79805 11.0154C9.70198 10.2776 9.85726 9.6142 10.224 9.19549C10.4603 8.92481 10.7714 8.78101 11.12 8.78101L11.1593 8.78221C12.1448 8.81061 13.0892 9.91026 13.2614 11.2311C13.3592 11.97 13.1943 12.666 12.8221 13.0902C12.5846 13.3621 12.2783 13.5053 11.9152 13.5053Z" fill="#222222"/>
</svg>
