<svg width="160" height="160" viewBox="0 0 160 160" fill="none" xmlns="http://www.w3.org/2000/svg">
<path opacity="0.05" fill-rule="evenodd" clip-rule="evenodd" d="M88.5981 145.356C87.401 145.356 86.258 145.116 85.4039 144.626L18.7727 106.396C16.8876 105.315 17.1238 103.426 19.301 102.177L22.7207 100.216L85.6751 136.335C85.6825 136.339 85.69 136.343 85.697 136.347C86.5833 136.849 87.7632 137.095 88.9986 137.095C90.5023 137.095 92.0883 136.731 93.3274 136.02L135.118 112.051L138.657 114.081C140.542 115.162 140.306 117.051 138.129 118.3L92.758 144.323C91.5679 145.006 90.0436 145.356 88.5981 145.356Z" fill="#000E4B"/>
<path fill-rule="evenodd" clip-rule="evenodd" d="M157.327 40.2058L87.9933 0.425863C87.1883 -0.0360841 86.3701 -0.107046 85.6439 0.139697L85.6485 0.132276L85.5221 0.180048L85.4917 0.191179L82.9864 1.14429L85.235 2.23794C85.2243 2.27922 85.2117 2.31771 85.2028 2.35992L73.9091 53.445C73.3439 56.0015 74.4757 58.9865 76.4369 60.1112L144.103 98.9343L143.862 101.784L146.6 100.729C147.52 100.302 148.257 99.3346 148.561 97.9571L159.855 46.872C160.42 44.3155 159.288 41.3305 157.327 40.2058Z" fill="#0037A1"/>
<path fill-rule="evenodd" clip-rule="evenodd" d="M157.329 40.2058L87.9955 0.425863C87.1904 -0.0360841 86.3722 -0.107046 85.646 0.139697L85.6507 0.132276L85.5242 0.180048L85.4939 0.191179L82.9885 1.14429L85.2372 2.23794C85.2264 2.27922 85.2138 2.31771 85.205 2.35992L77.7617 36.0283L111.686 62.293L159.519 42.9515C159.059 41.7674 158.296 40.76 157.329 40.2058Z" fill="#B4D0F6"/>
<path fill-rule="evenodd" clip-rule="evenodd" d="M154.713 48.058L159.991 45.8252C160.087 43.7938 159.241 41.6951 157.853 40.5731L149.498 44.0656L154.713 48.058Z" fill="#92B6E7"/>
<path fill-rule="evenodd" clip-rule="evenodd" d="M141.454 101.513L72.121 61.7336C70.1593 60.6084 69.0275 57.6233 69.5927 55.0673L80.8864 3.98179C81.4511 1.42531 83.4996 0.264871 85.4607 1.39006L154.794 41.1699C156.755 42.2951 157.888 45.2797 157.323 47.8366L146.029 98.9213C145.464 101.478 143.416 102.639 141.454 101.513Z" fill="#D7E8FE"/>
<path fill-rule="evenodd" clip-rule="evenodd" d="M155.46 40.9275L86.1259 1.14852C85.1761 0.603549 84.2086 0.604013 83.3965 1.03071C84.0485 0.888788 84.7584 0.987578 85.4603 1.39062L154.794 41.1696C156.755 42.2948 157.887 45.2803 157.322 47.8367L146.029 98.9214C145.738 100.239 145.048 101.177 144.184 101.63C145.354 101.376 146.331 100.322 146.694 98.6797L157.988 47.5946C158.553 45.0377 157.421 42.0531 155.46 40.9275Z" fill="#FFFFFE"/>
<path fill-rule="evenodd" clip-rule="evenodd" d="M139.952 97.7131L74.745 60.32C72.9504 59.2899 71.9148 56.5585 72.4319 54.2191L82.766 7.47198C83.2831 5.13256 85.1575 4.07091 86.9525 5.10055L152.159 42.4942C153.954 43.5238 154.989 46.2556 154.473 48.5946L144.138 95.3417C143.621 97.6811 141.747 98.7428 139.952 97.7131Z" fill="#FFFFFE"/>
<path fill-rule="evenodd" clip-rule="evenodd" d="M139.952 97.7131L74.745 60.32C72.9504 59.2899 71.9148 56.5585 72.4319 54.2191L82.766 7.47198C83.2831 5.13256 85.1575 4.07091 86.9525 5.10055L152.159 42.4942C153.954 43.5238 154.989 46.2556 154.473 48.5946L144.138 95.3417C143.621 97.6811 141.747 98.7428 139.952 97.7131Z" fill="#000E4B"/>
<path fill-rule="evenodd" clip-rule="evenodd" d="M140.52 97.4835L75.3134 60.0899C73.5189 59.0603 72.4833 56.3285 72.9999 53.9895L83.3345 7.24194C83.5963 6.05831 84.2068 5.20584 84.9773 4.78146C83.9436 5.04583 83.0895 6.00869 82.766 7.47198L72.4319 54.2186C71.9148 56.5585 72.9504 59.2899 74.745 60.32L139.952 97.7136C140.839 98.2219 141.743 98.2168 142.495 97.8026C141.876 97.9613 141.193 97.8694 140.52 97.4835Z" fill="#5589BB"/>
<path fill-rule="evenodd" clip-rule="evenodd" d="M142.411 103.245L132.934 102.002L71.755 66.9013C69.7938 65.7757 66.3676 65.9171 64.1031 67.2167L20.7523 92.0793L15.0215 91.3275V94.5588L15.0266 94.5597C14.9893 95.3064 15.4173 96.0244 16.3428 96.5559L85.6758 136.335C87.6375 137.461 91.0632 137.319 93.3282 136.02L140.539 108.942C141.813 108.211 142.449 107.269 142.411 106.385V103.245Z" fill="#0037A1"/>
<path fill-rule="evenodd" clip-rule="evenodd" d="M96.444 81.0658L92.097 78.572H44.31L20.7523 92.0793L15.0215 91.3275V94.5588L15.0266 94.5597C14.9893 95.3064 15.4173 96.0244 16.3428 96.5559L85.6758 136.335C86.7124 136.929 88.1583 137.167 89.6252 137.07L96.444 81.0658Z" fill="#B4D0F6"/>
<path fill-rule="evenodd" clip-rule="evenodd" d="M17.5646 91.6614L15.0215 91.3275V94.5588L15.0266 94.5597C14.9893 95.3064 15.4173 96.0244 16.3428 96.5559L17.5646 97.2562V91.6614Z" fill="#92B6E7"/>
<path fill-rule="evenodd" clip-rule="evenodd" d="M86.373 136.658C88.2325 137.358 90.8904 137.205 92.8749 136.256V129.049H86.373V136.658Z" fill="#92B6E7"/>
<path fill-rule="evenodd" clip-rule="evenodd" d="M85.6748 133.107L16.3417 93.3283C14.3801 92.2027 14.6266 90.2375 16.8911 88.938L64.1021 61.8598C66.3666 60.5607 69.7928 60.4197 71.754 61.5444L141.087 101.324C143.049 102.45 142.803 104.415 140.538 105.715L93.3271 132.792C91.0622 134.091 87.6364 134.233 85.6748 133.107Z" fill="#D7E8FE"/>
<path fill-rule="evenodd" clip-rule="evenodd" d="M140.538 104.534L93.327 131.612C91.062 132.911 87.6363 133.052 85.6747 131.927L16.3416 92.1479C15.6985 91.7792 15.2971 91.3191 15.1221 90.8223C14.8154 91.7444 15.2065 92.6766 16.3416 93.3283L85.6747 133.107C87.6363 134.233 91.062 134.091 93.327 132.792L140.538 105.715C142.06 104.841 142.666 103.668 142.306 102.649C142.083 103.321 141.492 103.987 140.538 104.534Z" fill="#FFFFFE"/>
<path fill-rule="evenodd" clip-rule="evenodd" d="M98.4263 98.7836L95.2895 96.9836C95.0374 96.8394 95.0687 96.587 95.3595 96.4201L98.4678 94.6368C98.759 94.4698 99.1987 94.4517 99.4507 94.5959L102.588 96.396C102.84 96.5402 102.808 96.793 102.517 96.9599L99.4087 98.7428C99.118 98.9102 98.6783 98.9283 98.4263 98.7836Z" fill="#000E4B"/>
<path fill-rule="evenodd" clip-rule="evenodd" d="M103.27 101.563L100.133 99.7636C99.8812 99.6189 99.9124 99.3661 100.203 99.1996L103.312 97.4163C103.602 97.2493 104.043 97.2312 104.294 97.3755L107.432 99.1755C107.684 99.3202 107.652 99.5725 107.361 99.7395L104.253 101.523C103.962 101.69 103.522 101.708 103.27 101.563Z" fill="#000E4B"/>
<path fill-rule="evenodd" clip-rule="evenodd" d="M108.114 104.343L104.977 102.543C104.725 102.398 104.756 102.146 105.047 101.979L108.155 100.195C108.446 100.029 108.886 100.011 109.138 100.155L112.275 101.955C112.527 102.1 112.496 102.352 112.204 102.519L109.096 104.302C108.806 104.469 108.365 104.487 108.114 104.343Z" fill="#000E4B"/>
<path fill-rule="evenodd" clip-rule="evenodd" d="M112.959 107.122L109.822 105.322C109.57 105.178 109.602 104.926 109.893 104.758L113.001 102.975C113.292 102.808 113.732 102.79 113.984 102.935L117.121 104.734C117.373 104.879 117.341 105.132 117.051 105.298L113.942 107.082C113.651 107.248 113.211 107.267 112.959 107.122Z" fill="#000E4B"/>
<path fill-rule="evenodd" clip-rule="evenodd" d="M121.573 112.064L114.728 108.136C114.477 107.992 114.508 107.74 114.799 107.573L117.908 105.789C118.198 105.622 118.638 105.604 118.89 105.749L125.735 109.676C125.987 109.82 125.955 110.073 125.664 110.24L122.556 112.023C122.265 112.19 121.825 112.208 121.573 112.064Z" fill="#000E4B"/>
<path fill-rule="evenodd" clip-rule="evenodd" d="M131.004 106.652L125.226 103.338C124.975 103.193 125.007 102.941 125.297 102.774L128.406 100.99C128.696 100.823 129.136 100.805 129.388 100.95L135.165 104.265C135.417 104.409 135.386 104.661 135.095 104.829L131.987 106.612C131.696 106.779 131.255 106.797 131.004 106.652Z" fill="#000E4B"/>
<path fill-rule="evenodd" clip-rule="evenodd" d="M82.6863 84.3422L79.549 82.5422C79.297 82.3975 79.3287 82.1452 79.6195 81.9786L82.7278 80.1949C83.0186 80.0284 83.4587 80.0103 83.7103 80.1545L86.8476 81.9545C87.0996 82.0992 87.0679 82.3515 86.7771 82.5185L83.6688 84.3018C83.3775 84.4683 82.9379 84.4864 82.6863 84.3422Z" fill="#000E4B"/>
<path fill-rule="evenodd" clip-rule="evenodd" d="M77.7208 81.4936L74.584 79.6935C74.3324 79.5493 74.3637 79.297 74.6545 79.1296L77.7628 77.3467C78.0536 77.1797 78.4937 77.1612 78.7457 77.3064L81.8825 79.1059C82.1341 79.2501 82.1028 79.5029 81.8121 79.6694L78.7037 81.4532C78.4129 81.6202 77.9728 81.6383 77.7208 81.4936Z" fill="#000E4B"/>
<path fill-rule="evenodd" clip-rule="evenodd" d="M72.7544 78.6444L69.6176 76.8453C69.3656 76.7006 69.3968 76.4478 69.6876 76.2813L72.7959 74.498C73.0872 74.331 73.5273 74.3129 73.7789 74.4571L76.9161 76.2572C77.1682 76.4019 77.136 76.6537 76.8452 76.8211L73.7368 78.6045C73.4461 78.7714 73.0064 78.7895 72.7544 78.6444Z" fill="#000E4B"/>
<path fill-rule="evenodd" clip-rule="evenodd" d="M67.7916 75.7962L64.6543 73.9962C64.4023 73.8515 64.4345 73.5996 64.7252 73.4327L67.8336 71.6489C68.1243 71.4824 68.564 71.4643 68.816 71.609L71.9528 73.4086C72.2049 73.5533 72.1736 73.8056 71.8828 73.9721L68.774 75.7559C68.4832 75.9224 68.0431 75.9405 67.7916 75.7962Z" fill="#000E4B"/>
<path fill-rule="evenodd" clip-rule="evenodd" d="M87.53 87.1218L84.3927 85.3218C84.1407 85.1771 84.1724 84.9248 84.4637 84.7578L87.5716 82.9745C87.8628 82.808 88.3024 82.7899 88.554 82.9341L91.6913 84.7341C91.9433 84.8788 91.9121 85.1311 91.6208 85.2976L88.5125 87.0814C88.2217 87.2479 87.7816 87.266 87.53 87.1218Z" fill="#000E4B"/>
<path fill-rule="evenodd" clip-rule="evenodd" d="M92.3758 89.9014L89.2385 88.1014C88.9864 87.9571 89.0182 87.7048 89.3089 87.5374L92.4178 85.7545C92.7085 85.5871 93.1482 85.569 93.4002 85.7137L96.537 87.5137C96.789 87.658 96.7573 87.9107 96.4665 88.0772L93.3582 89.8606C93.0674 90.0275 92.6273 90.0461 92.3758 89.9014Z" fill="#000E4B"/>
<path fill-rule="evenodd" clip-rule="evenodd" d="M97.2213 92.6809L94.084 90.8809C93.8324 90.7366 93.8637 90.4838 94.1545 90.3169L97.2628 88.534C97.554 88.3666 97.9937 88.3485 98.2457 88.4932L101.383 90.2932C101.635 90.4375 101.603 90.6898 101.312 90.8572L98.2037 92.6401C97.9129 92.8075 97.4733 92.8256 97.2213 92.6809Z" fill="#000E4B"/>
<path fill-rule="evenodd" clip-rule="evenodd" d="M102.065 95.46L98.9277 93.6599C98.6762 93.5157 98.7074 93.2634 98.9982 93.0969L102.107 91.3131C102.397 91.1466 102.837 91.128 103.089 91.2727L106.226 93.0728C106.478 93.217 106.447 93.4693 106.156 93.6367L103.047 95.4196C102.757 95.5866 102.317 95.6047 102.065 95.46Z" fill="#000E4B"/>
<path fill-rule="evenodd" clip-rule="evenodd" d="M50.6762 82.9383L47.5389 81.1382C47.2873 80.994 47.319 80.7417 47.6098 80.5747L51.3123 78.4505C51.6031 78.2831 52.0436 78.265 52.2952 78.4097L55.4325 80.2092C55.6845 80.354 55.6523 80.6067 55.3616 80.7732L51.6591 82.8974C51.3683 83.0649 50.9282 83.083 50.6762 82.9383Z" fill="#000E4B"/>
<path fill-rule="evenodd" clip-rule="evenodd" d="M55.5198 85.7179L52.383 83.9183C52.131 83.7736 52.1627 83.5208 52.4535 83.3543L56.156 81.2301C56.4472 81.0627 56.8873 81.0446 57.1389 81.1893L60.2757 82.9893C60.5277 83.1336 60.4965 83.3859 60.2057 83.5528L56.5023 85.6775C56.2115 85.8445 55.7719 85.8626 55.5198 85.7179Z" fill="#000E4B"/>
<path fill-rule="evenodd" clip-rule="evenodd" d="M62.2189 83.4225L59.082 81.6225C58.8305 81.4782 58.8617 81.2255 59.1525 81.059L62.2609 79.2756C62.5516 79.1082 62.9917 79.0901 63.2438 79.2348L66.3806 81.0348C66.6322 81.1791 66.6009 81.4314 66.3101 81.5988L63.2018 83.3817C62.911 83.5491 62.4709 83.5672 62.2189 83.4225Z" fill="#000E4B"/>
<path fill-rule="evenodd" clip-rule="evenodd" d="M67.0626 86.2016L63.9258 84.4025C63.6742 84.2578 63.7055 84.005 63.9963 83.8385L67.1046 82.0547C67.3954 81.8882 67.8355 81.8701 68.0875 82.0144L71.2243 83.8144C71.4759 83.9586 71.4446 84.2109 71.1539 84.3784L68.0455 86.1617C67.7547 86.3282 67.3146 86.3463 67.0626 86.2016Z" fill="#000E4B"/>
<path fill-rule="evenodd" clip-rule="evenodd" d="M71.9085 88.9817L68.7717 87.1816C68.5196 87.0369 68.5514 86.7846 68.8422 86.6181L71.9505 84.8343C72.2413 84.6678 72.6809 84.6497 72.9334 84.794L76.0702 86.594C76.3223 86.7387 76.2905 86.991 75.9998 87.1575L72.8914 88.9413C72.6006 89.1078 72.1605 89.1259 71.9085 88.9817Z" fill="#000E4B"/>
<path fill-rule="evenodd" clip-rule="evenodd" d="M76.7527 91.7612L73.6154 89.9612C73.3634 89.8165 73.3951 89.5641 73.6859 89.3972L76.7943 87.6138C77.085 87.4469 77.5251 87.4288 77.7767 87.5735L80.914 89.3731C81.166 89.5178 81.1343 89.7705 80.8435 89.937L77.7356 91.7204C77.4444 91.8873 77.0043 91.9054 76.7527 91.7612Z" fill="#000E4B"/>
<path fill-rule="evenodd" clip-rule="evenodd" d="M81.5982 94.5407L78.4609 92.7407C78.2089 92.5965 78.2411 92.3437 78.5319 92.1767L81.6398 90.3939C81.9305 90.2264 82.3706 90.2084 82.6222 90.3531L85.7595 92.1526C86.0115 92.2973 85.9802 92.5496 85.689 92.7166L82.5807 94.4999C82.2899 94.6669 81.8498 94.685 81.5982 94.5407Z" fill="#000E4B"/>
<path fill-rule="evenodd" clip-rule="evenodd" d="M86.4421 97.3198L83.3048 95.5202C83.0528 95.3755 83.0845 95.1232 83.3758 94.9563L86.4841 93.1729C86.7749 93.006 87.2145 92.9879 87.4666 93.1326L90.6034 94.9326C90.8554 95.0768 90.8237 95.3291 90.5329 95.4961L87.4246 97.2794C87.1338 97.4464 86.6937 97.4645 86.4421 97.3198Z" fill="#000E4B"/>
<path fill-rule="evenodd" clip-rule="evenodd" d="M91.2857 100.099L88.1484 98.2994C87.8969 98.1551 87.9281 97.9028 88.2189 97.7363L91.3277 95.9525C91.6185 95.7856 92.0581 95.7675 92.3102 95.9122L95.4475 97.7122C95.699 97.8564 95.6673 98.1087 95.3765 98.2757L92.2682 100.059C91.9774 100.226 91.5378 100.244 91.2857 100.099Z" fill="#000E4B"/>
<path fill-rule="evenodd" clip-rule="evenodd" d="M96.1314 102.879L92.9941 101.079C92.7426 100.935 92.7738 100.682 93.0646 100.515L96.173 98.7321C96.4637 98.5652 96.9038 98.5471 97.1559 98.6918L100.293 100.491C100.545 100.636 100.513 100.888 100.222 101.055L97.1139 102.839C96.8231 103.006 96.3835 103.024 96.1314 102.879Z" fill="#000E4B"/>
<path fill-rule="evenodd" clip-rule="evenodd" d="M100.977 105.659L97.8398 103.859C97.5883 103.714 97.6196 103.462 97.9103 103.295L101.019 101.512C101.309 101.345 101.75 101.327 102.002 101.471L105.138 103.271C105.39 103.416 105.359 103.668 105.068 103.835L101.96 105.618C101.669 105.785 101.229 105.803 100.977 105.659Z" fill="#000E4B"/>
<path fill-rule="evenodd" clip-rule="evenodd" d="M105.82 108.438L102.684 106.638C102.432 106.493 102.463 106.241 102.754 106.074L105.862 104.291C106.153 104.124 106.594 104.106 106.845 104.25L109.982 106.05C110.234 106.195 110.202 106.447 109.912 106.614L106.803 108.398C106.512 108.564 106.072 108.582 105.82 108.438Z" fill="#000E4B"/>
<path fill-rule="evenodd" clip-rule="evenodd" d="M69.3555 82.1061L66.2191 80.3061C65.9671 80.1619 65.9984 79.9096 66.2891 79.7431L69.3975 77.9593C69.6883 77.7928 70.1289 77.7742 70.3804 77.9189L73.5172 79.7189C73.7693 79.8632 73.7375 80.1155 73.4468 80.2829L70.3384 82.0658C70.0476 82.2328 69.6075 82.2508 69.3555 82.1061Z" fill="#000E4B"/>
<path fill-rule="evenodd" clip-rule="evenodd" d="M64.442 79.2853L61.3052 77.4853C61.0527 77.3411 61.0845 77.0888 61.3757 76.9218L64.4836 75.1385C64.7744 74.972 65.2145 74.9534 65.4665 75.0981L68.6033 76.8977C68.8553 77.0419 68.8241 77.2947 68.5328 77.4617L65.425 79.245C65.1342 79.412 64.6936 79.43 64.442 79.2853Z" fill="#000E4B"/>
<path fill-rule="evenodd" clip-rule="evenodd" d="M59.516 76.4598L52.7598 72.5834C52.5082 72.4391 52.5395 72.1863 52.8302 72.0194L55.9386 70.2365C56.2294 70.0691 56.6695 70.051 56.9215 70.1957L63.6777 74.0722C63.9298 74.2169 63.898 74.4692 63.6073 74.6362L60.4989 76.4195C60.2081 76.586 59.7685 76.6041 59.516 76.4598Z" fill="#000E4B"/>
<path fill-rule="evenodd" clip-rule="evenodd" d="M62.9594 73.0236L57.4764 69.8776C57.2248 69.7334 57.2565 69.4811 57.5473 69.3136L60.6557 67.5308C60.9464 67.3638 61.3861 67.3457 61.6381 67.4904L67.1211 70.6359C67.3727 70.7802 67.3414 71.0325 67.0507 71.1999L63.9423 72.9828C63.6515 73.1502 63.2114 73.1683 62.9594 73.0236Z" fill="#000E4B"/>
<path fill-rule="evenodd" clip-rule="evenodd" d="M74.2036 84.8861L71.0668 83.0861C70.8147 82.9414 70.846 82.6891 71.1372 82.5221L74.2451 80.7388C74.5359 80.5723 74.9765 80.5542 75.228 80.6985L78.3649 82.498C78.6169 82.6432 78.5851 82.8955 78.2944 83.062L75.1865 84.8458C74.8957 85.0123 74.4551 85.0304 74.2036 84.8861Z" fill="#000E4B"/>
<path fill-rule="evenodd" clip-rule="evenodd" d="M79.0474 87.6658L75.9101 85.8658C75.6581 85.7211 75.6903 85.4688 75.9811 85.3018L79.089 83.5185C79.3802 83.3515 79.8199 83.3334 80.0714 83.4777L83.2087 85.2777C83.4607 85.4224 83.4295 85.6751 83.1387 85.8416L80.0303 87.625C79.7396 87.7919 79.299 87.81 79.0474 87.6658Z" fill="#000E4B"/>
<path fill-rule="evenodd" clip-rule="evenodd" d="M83.8912 90.4454L80.7539 88.6454C80.5019 88.5007 80.5341 88.2484 80.8248 88.0814L83.9332 86.2981C84.224 86.1311 84.6636 86.1131 84.9156 86.2578L88.0525 88.0573C88.3045 88.202 88.2732 88.4543 87.9825 88.6213L84.8736 90.4046C84.5829 90.5716 84.1432 90.5897 83.8912 90.4454Z" fill="#000E4B"/>
<path fill-rule="evenodd" clip-rule="evenodd" d="M88.7367 93.2244L85.5994 91.4244C85.3478 91.2801 85.3796 91.0278 85.6704 90.8609L88.7787 89.0775C89.0695 88.9106 89.5091 88.8925 89.7611 89.0372L92.8984 90.8372C93.15 90.9814 93.1187 91.2338 92.828 91.4003L89.7191 93.184C89.4284 93.3506 88.9887 93.3691 88.7367 93.2244Z" fill="#000E4B"/>
<path fill-rule="evenodd" clip-rule="evenodd" d="M93.5807 96.0041L90.4434 94.204C90.1918 94.0598 90.2231 93.8075 90.5138 93.6405L93.6227 91.8572C93.9134 91.6902 94.3531 91.6721 94.6051 91.8168L97.7424 93.6164C97.994 93.7611 97.9622 94.0134 97.6715 94.1804L94.5631 95.9637C94.2723 96.1307 93.8327 96.1488 93.5807 96.0041Z" fill="#000E4B"/>
<path fill-rule="evenodd" clip-rule="evenodd" d="M45.8304 80.1587L42.6936 78.3586C42.4415 78.2144 42.4733 77.9621 42.764 77.7951L46.467 75.6704C46.7577 75.5039 47.1979 75.4859 47.4494 75.6301L50.5867 77.4297C50.8387 77.5748 50.8065 77.8271 50.5158 77.9936L46.8133 80.1183C46.5225 80.2853 46.0824 80.3034 45.8304 80.1587Z" fill="#000E4B"/>
<path fill-rule="evenodd" clip-rule="evenodd" d="M106.908 98.2396L103.771 96.44C103.52 96.2953 103.551 96.043 103.842 95.876L106.95 94.0927C107.241 93.9262 107.681 93.9081 107.933 94.0523L111.07 95.8519C111.322 95.9971 111.29 96.2494 111 96.4159L107.891 98.1997C107.6 98.3662 107.16 98.3843 106.908 98.2396Z" fill="#000E4B"/>
<path fill-rule="evenodd" clip-rule="evenodd" d="M111.754 101.02L108.618 99.2195C108.366 99.0748 108.397 98.8225 108.688 98.6555L111.796 96.8722C112.087 96.7053 112.527 96.6872 112.779 96.8314L115.916 98.6314C116.168 98.7761 116.136 99.0289 115.845 99.1954L112.737 100.979C112.446 101.146 112.006 101.164 111.754 101.02Z" fill="#000E4B"/>
<path fill-rule="evenodd" clip-rule="evenodd" d="M116.6 103.799L113.463 101.999C113.211 101.854 113.243 101.602 113.534 101.435L116.642 99.6518C116.933 99.4848 117.373 99.4668 117.624 99.6115L120.762 101.411C121.014 101.556 120.982 101.808 120.691 101.975L117.583 103.758C117.292 103.925 116.852 103.943 116.6 103.799Z" fill="#000E4B"/>
<path fill-rule="evenodd" clip-rule="evenodd" d="M121.444 106.578L118.307 104.778C118.055 104.634 118.087 104.382 118.378 104.215L121.485 102.431C121.777 102.264 122.216 102.246 122.468 102.391L125.605 104.191C125.857 104.335 125.826 104.588 125.535 104.755L122.426 106.538C122.136 106.704 121.695 106.723 121.444 106.578Z" fill="#000E4B"/>
<path fill-rule="evenodd" clip-rule="evenodd" d="M126.288 109.358L123.15 107.558C122.898 107.413 122.931 107.161 123.221 106.994L126.33 105.211C126.62 105.044 127.06 105.026 127.312 105.171L130.449 106.97C130.701 107.115 130.67 107.367 130.379 107.534L127.27 109.317C126.979 109.484 126.54 109.502 126.288 109.358Z" fill="#000E4B"/>
<path fill-rule="evenodd" clip-rule="evenodd" d="M80.1355 77.4667L76.9982 75.6676C76.7462 75.5229 76.7779 75.2702 77.0691 75.1037L80.177 73.3199C80.4678 73.1534 80.9079 73.1353 81.1595 73.2795L84.2968 75.0795C84.5488 75.2238 84.5175 75.4761 84.2263 75.6435L81.1184 77.4264C80.8276 77.5933 80.3871 77.6119 80.1355 77.4667Z" fill="#000E4B"/>
<path fill-rule="evenodd" clip-rule="evenodd" d="M75.3148 74.7016L72.1779 72.9015C71.9259 72.7568 71.9576 72.5045 72.2484 72.338L75.3568 70.5542C75.6475 70.3877 76.0872 70.3696 76.3392 70.5139L79.4765 72.3139C79.7285 72.4586 79.6968 72.7109 79.406 72.8774L76.2977 74.6612C76.0064 74.8277 75.5668 74.8458 75.3148 74.7016Z" fill="#000E4B"/>
<path fill-rule="evenodd" clip-rule="evenodd" d="M70.4945 71.9359L67.3572 70.1359C67.1057 69.9912 67.1374 69.7389 67.4282 69.5719L70.5365 67.7886C70.8273 67.6221 71.2669 67.604 71.519 67.7483L74.6562 69.5478C74.9078 69.693 74.8765 69.9453 74.5858 70.1118L71.477 71.8956C71.1862 72.0621 70.7465 72.0802 70.4945 71.9359Z" fill="#000E4B"/>
<path fill-rule="evenodd" clip-rule="evenodd" d="M65.6726 69.1703L62.5353 67.3703C62.2833 67.2256 62.3151 66.9733 62.6058 66.8063L65.7146 65.023C66.0054 64.856 66.4451 64.8379 66.6971 64.9822L69.8339 66.7822C70.0859 66.9269 70.0542 67.1797 69.7634 67.3462L66.6551 69.1295C66.3643 69.2965 65.9242 69.3145 65.6726 69.1703Z" fill="#000E4B"/>
<path fill-rule="evenodd" clip-rule="evenodd" d="M70.6312 66.3262L67.4943 64.5262C67.2423 64.382 67.274 64.1296 67.5648 63.9622L68.5925 63.3732C68.8833 63.2057 69.3229 63.1877 69.575 63.3324L72.7123 65.1324C72.9638 65.2766 72.9326 65.5289 72.6418 65.6964L71.6136 66.2854C71.3228 66.4524 70.8832 66.4705 70.6312 66.3262Z" fill="#000E4B"/>
<path fill-rule="evenodd" clip-rule="evenodd" d="M76.9219 69.9351L73.7855 68.1355C73.5335 67.9913 73.5648 67.7385 73.8556 67.5715L74.8833 66.982C75.174 66.8155 75.6142 66.7974 75.8662 66.9417L79.003 68.7417C79.2546 68.8859 79.2233 69.1383 78.9325 69.3052L77.9048 69.8947C77.6141 70.0617 77.1739 70.0798 76.9219 69.9351Z" fill="#000E4B"/>
<path fill-rule="evenodd" clip-rule="evenodd" d="M81.7216 72.6896L78.5843 70.8896C78.3323 70.7449 78.3636 70.4926 78.6548 70.3261L79.6821 69.7361C79.9728 69.5696 80.4129 69.5515 80.665 69.6962L83.8023 71.4953C84.0543 71.64 84.0221 71.8928 83.7313 72.0593L82.7041 72.6493C82.4133 72.8158 81.9732 72.8338 81.7216 72.6896Z" fill="#000E4B"/>
<path fill-rule="evenodd" clip-rule="evenodd" d="M86.5222 75.4437L83.385 73.6436C83.1329 73.4994 83.1647 73.2471 83.4554 73.0797L84.4831 72.4906C84.7739 72.3237 85.214 72.3056 85.4656 72.4498L88.6029 74.2498C88.8549 74.3941 88.8227 74.6469 88.5319 74.8138L87.5047 75.4033C87.2139 75.5703 86.7738 75.5884 86.5222 75.4437Z" fill="#000E4B"/>
<path fill-rule="evenodd" clip-rule="evenodd" d="M91.3226 78.1981L88.1853 76.3981C87.9338 76.2534 87.9655 76.0011 88.2563 75.8341L89.2835 75.2442C89.5748 75.0777 90.0144 75.0596 90.2665 75.2043L93.4033 77.0038C93.6553 77.1485 93.624 77.4008 93.3328 77.5678L92.3051 78.1573C92.0143 78.3243 91.5747 78.3424 91.3226 78.1981Z" fill="#000E4B"/>
<path fill-rule="evenodd" clip-rule="evenodd" d="M118.124 93.5741L114.987 91.7741C114.734 91.6299 114.766 91.3776 115.057 91.2101L116.085 90.6206C116.375 90.4537 116.816 90.4356 117.067 90.5803L120.204 92.3803C120.456 92.5245 120.424 92.7768 120.134 92.9443L119.106 93.5333C118.815 93.7003 118.375 93.7184 118.124 93.5741Z" fill="#000E4B"/>
<path fill-rule="evenodd" clip-rule="evenodd" d="M122.922 96.3277L119.785 94.5286C119.533 94.3839 119.565 94.1311 119.856 93.9646L120.883 93.3747C121.174 93.2082 121.614 93.1901 121.866 93.3343L125.003 95.1343C125.255 95.2791 125.224 95.5314 124.933 95.6979L123.905 96.2878C123.614 96.4548 123.174 96.4729 122.922 96.3277Z" fill="#000E4B"/>
<path fill-rule="evenodd" clip-rule="evenodd" d="M127.723 99.0822L124.586 97.2822C124.334 97.1379 124.366 96.8856 124.657 96.7187L125.684 96.1292C125.975 95.9622 126.415 95.9441 126.667 96.0888L129.804 97.8884C130.056 98.0331 130.024 98.2854 129.734 98.4524L128.706 99.0418C128.415 99.2084 127.975 99.2264 127.723 99.0822Z" fill="#000E4B"/>
<path fill-rule="evenodd" clip-rule="evenodd" d="M132.524 101.836L129.387 100.037C129.135 99.892 129.167 99.6397 129.457 99.4728L130.485 98.8833C130.776 98.7163 131.215 98.6982 131.468 98.8425L134.605 100.642C134.856 100.787 134.825 101.04 134.534 101.206L133.507 101.796C133.216 101.963 132.776 101.981 132.524 101.836Z" fill="#000E4B"/>
<path fill-rule="evenodd" clip-rule="evenodd" d="M84.9791 80.2469L81.8418 78.4468C81.5898 78.3021 81.622 78.0498 81.9127 77.8833L85.0206 76.0995C85.3118 75.933 85.7515 75.9149 86.0035 76.0592L89.1403 77.8592C89.3924 78.0039 89.3611 78.2562 89.0703 78.4227L85.962 80.2065C85.6708 80.373 85.2306 80.3911 84.9791 80.2469Z" fill="#000E4B"/>
<path fill-rule="evenodd" clip-rule="evenodd" d="M89.8248 83.0263L86.6875 81.2263C86.4355 81.0815 86.4677 80.8292 86.7584 80.6623L89.8668 78.8789C90.1575 78.7124 90.5972 78.6944 90.8492 78.8386L93.9865 80.6382C94.2381 80.7829 94.2068 81.0356 93.916 81.2021L90.8072 82.9859C90.5165 83.1524 90.0768 83.1705 89.8248 83.0263Z" fill="#000E4B"/>
<path fill-rule="evenodd" clip-rule="evenodd" d="M94.6685 85.8059L91.5313 84.0059C91.2797 83.8616 91.311 83.6093 91.6017 83.4419L94.7105 81.6586C95.0013 81.4916 95.441 81.4735 95.693 81.6182L98.8303 83.4178C99.0818 83.5625 99.0501 83.8153 98.7593 83.9818L95.651 85.7651C95.3602 85.9321 94.9206 85.9501 94.6685 85.8059Z" fill="#000E4B"/>
<path fill-rule="evenodd" clip-rule="evenodd" d="M99.5123 88.585L96.375 86.7855C96.1234 86.6413 96.1547 86.3885 96.4455 86.2215L99.5543 84.4382C99.8451 84.2712 100.285 84.2531 100.537 84.3978L103.674 86.1979C103.926 86.3421 103.894 86.5944 103.603 86.7614L100.495 88.5447C100.204 88.7117 99.7643 88.7298 99.5123 88.585Z" fill="#000E4B"/>
<path fill-rule="evenodd" clip-rule="evenodd" d="M104.358 91.3646L101.221 89.5646C100.969 89.4203 101 89.168 101.291 89.0015L104.399 87.2177C104.69 87.0508 105.131 87.0327 105.382 87.1774L108.52 88.9774C108.772 89.1216 108.739 89.374 108.449 89.5409L105.34 91.3242C105.05 91.4912 104.61 91.5093 104.358 91.3646Z" fill="#000E4B"/>
<path fill-rule="evenodd" clip-rule="evenodd" d="M109.204 94.1442L106.067 92.3446C105.815 92.1999 105.846 91.9476 106.137 91.7806L109.245 89.9973C109.536 89.8308 109.976 89.8127 110.228 89.9569L113.365 91.7565C113.617 91.9012 113.585 92.1535 113.294 92.3205L110.186 94.1043C109.895 94.2708 109.455 94.2889 109.204 94.1442Z" fill="#000E4B"/>
<path fill-rule="evenodd" clip-rule="evenodd" d="M114.047 96.9242L110.91 95.1242C110.658 94.9795 110.69 94.7267 110.981 94.5602L114.089 92.7769C114.38 92.6099 114.82 92.5918 115.072 92.7361L118.208 94.5361C118.46 94.6808 118.429 94.9331 118.138 95.1001L115.03 96.8834C114.739 97.0504 114.299 97.0685 114.047 96.9242Z" fill="#000E4B"/>
<path fill-rule="evenodd" clip-rule="evenodd" d="M118.891 99.7033L115.754 97.9038C115.502 97.7591 115.534 97.5063 115.825 97.3398L118.933 95.556C119.224 95.3895 119.664 95.3714 119.916 95.5157L123.052 97.3157C123.304 97.4604 123.273 97.7127 122.982 97.8797L119.874 99.663C119.583 99.8295 119.143 99.8476 118.891 99.7033Z" fill="#000E4B"/>
<path fill-rule="evenodd" clip-rule="evenodd" d="M123.737 102.483L120.599 100.683C120.348 100.539 120.38 100.286 120.67 100.119L123.779 98.336C124.069 98.169 124.509 98.151 124.761 98.2957L127.898 100.095C128.15 100.24 128.119 100.492 127.828 100.659L124.72 102.443C124.428 102.609 123.989 102.627 123.737 102.483Z" fill="#000E4B"/>
<path fill-rule="evenodd" clip-rule="evenodd" d="M57.2819 80.59L48.0432 75.2892C47.7911 75.145 47.8229 74.8922 48.1136 74.7252L51.222 72.9419C51.5128 72.7749 51.9524 72.7569 52.2044 72.9016L61.4436 78.2019C61.6952 78.3466 61.6639 78.5994 61.3731 78.7659L58.2648 80.5492C57.974 80.7162 57.5339 80.7343 57.2819 80.59Z" fill="#000E4B"/>
<path fill-rule="evenodd" clip-rule="evenodd" d="M116.8 114.737L107.561 109.436C107.309 109.292 107.34 109.04 107.631 108.872L110.739 107.089C111.03 106.922 111.47 106.904 111.722 107.048L120.961 112.349C121.213 112.494 121.181 112.746 120.891 112.913L117.782 114.697C117.491 114.863 117.052 114.881 116.8 114.737Z" fill="#000E4B"/>
<path fill-rule="evenodd" clip-rule="evenodd" d="M97.4261 109.761L94.2893 107.961C94.0372 107.817 94.069 107.564 94.3597 107.397L98.0627 105.273C98.3535 105.106 98.7936 105.088 99.0456 105.233L102.182 107.032C102.434 107.177 102.403 107.429 102.112 107.596L98.409 109.721C98.1178 109.888 97.6781 109.906 97.4261 109.761Z" fill="#000E4B"/>
<path fill-rule="evenodd" clip-rule="evenodd" d="M62.2435 89.5762L57.2268 86.6979C56.9747 86.5527 57.0065 86.3004 57.2972 86.1339L61.0002 84.0092C61.291 83.8427 61.7311 83.8241 61.9831 83.9688L66.9999 86.8472C67.2519 86.9919 67.2202 87.2442 66.9289 87.4112L63.2264 89.5354C62.9357 89.7024 62.4956 89.7205 62.2435 89.5762Z" fill="#000E4B"/>
<path fill-rule="evenodd" clip-rule="evenodd" d="M92.7574 107.083L87.7406 104.204C87.4886 104.06 87.5199 103.807 87.8106 103.64L91.5136 101.516C91.8048 101.349 92.2445 101.331 92.4965 101.475L97.5137 104.354C97.7658 104.499 97.7336 104.751 97.4428 104.918L93.7403 107.042C93.4495 107.209 93.0094 107.227 92.7574 107.083Z" fill="#000E4B"/>
<path fill-rule="evenodd" clip-rule="evenodd" d="M69.234 93.5861L64.2168 90.7077C63.9652 90.563 63.9965 90.3107 64.2873 90.1438L67.9902 88.0191C68.281 87.8526 68.7211 87.8345 68.9727 87.9787L73.9899 90.8576C74.2415 91.0018 74.2102 91.2546 73.9194 91.4211L70.2165 93.5453C69.9257 93.7127 69.4856 93.7308 69.234 93.5861Z" fill="#000E4B"/>
<path fill-rule="evenodd" clip-rule="evenodd" d="M69.0078 87.9984L90.8209 100.514C91.0911 100.669 91.0911 100.92 90.8209 101.076L87.0447 103.242C86.774 103.398 86.3348 103.398 86.0646 103.242L64.252 90.7274L69.0078 87.9984Z" fill="#000E4B"/>
<path fill-rule="evenodd" clip-rule="evenodd" d="M110.966 114.801L114.461 116.806C114.668 116.924 114.641 117.131 114.403 117.267L112.888 118.137C112.65 118.273 112.289 118.288 112.082 118.17L108.589 116.165C108.382 116.046 108.408 115.84 108.646 115.703L110.161 114.834C110.399 114.697 110.76 114.682 110.966 114.801Z" fill="#000E4B"/>
<path fill-rule="evenodd" clip-rule="evenodd" d="M106.08 111.998L109.574 114.003C109.781 114.122 109.755 114.328 109.517 114.465L108.002 115.334C107.763 115.471 107.403 115.486 107.196 115.367L103.702 113.362C103.495 113.244 103.522 113.037 103.76 112.9L105.275 112.031C105.513 111.894 105.874 111.88 106.08 111.998Z" fill="#000E4B"/>
<path fill-rule="evenodd" clip-rule="evenodd" d="M101.236 109.218L104.731 111.224C104.937 111.342 104.911 111.549 104.673 111.686L103.158 112.555C102.92 112.692 102.559 112.706 102.353 112.588L98.8579 110.583C98.6516 110.464 98.6778 110.258 98.9158 110.121L100.431 109.252C100.669 109.115 101.03 109.1 101.236 109.218Z" fill="#000E4B"/>
<path fill-rule="evenodd" clip-rule="evenodd" d="M108.756 110.463L112.25 112.468C112.456 112.586 112.43 112.793 112.192 112.93L110.678 113.799C110.439 113.935 110.078 113.951 109.872 113.832L106.378 111.827C106.171 111.709 106.197 111.502 106.436 111.365L107.95 110.496C108.189 110.359 108.549 110.345 108.756 110.463Z" fill="#000E4B"/>
<path fill-rule="evenodd" clip-rule="evenodd" d="M67.2476 115.53L45.6161 103.119C44.987 102.757 45.0659 102.126 45.7925 101.709L58.8467 94.2197C59.5738 93.8023 60.6734 93.7568 61.3035 94.1186L82.9346 106.53C83.5642 106.891 83.4853 107.522 82.7581 107.939L69.7045 115.428C68.9773 115.845 67.8777 115.891 67.2476 115.53Z" fill="#FFFFFE"/>
<mask id="mask0" mask-type="alpha" maskUnits="userSpaceOnUse" x="96" y="8" width="54" height="83">
<path fill-rule="evenodd" clip-rule="evenodd" d="M125.989 85.5068L136.6 42.4561L96.5039 18.8384L119.648 8.23862L149.418 19.6468C149.418 19.6468 149.599 71.7777 149.418 72.3028C149.238 72.8273 138.39 90.3178 138.39 90.3178L125.989 85.5068Z" fill="white"/>
</mask>
<g mask="url(#mask0)">
<path fill-rule="evenodd" clip-rule="evenodd" d="M112.982 26.2917C112.898 26.1744 112.774 26.064 112.607 25.9684L107.468 23.0196C107.133 22.828 106.696 22.7329 106.259 22.7329C105.875 22.7329 105.491 22.8058 105.176 22.9509L104.317 23.4412L104.008 23.2589L105.132 22.6142C105.468 22.4213 105.909 22.3253 106.35 22.3253C106.792 22.3253 107.233 22.4213 107.569 22.6142L112.709 25.5631C112.941 25.6962 113.091 25.8585 113.163 26.0292C113.287 25.7337 113.173 25.4114 112.818 25.1656C113.283 25.487 113.338 25.9397 112.982 26.2917ZM112.815 25.1637C112.814 25.1627 112.813 25.1623 112.812 25.1618C112.813 25.1623 112.814 25.1627 112.815 25.1637ZM112.807 25.1577C112.806 25.1577 112.806 25.1572 112.806 25.1572C112.806 25.1572 112.806 25.1577 112.807 25.1577ZM112.801 25.153C112.8 25.153 112.8 25.153 112.8 25.1525C112.8 25.153 112.8 25.153 112.801 25.153ZM112.719 25.102C112.718 25.1016 112.718 25.1016 112.718 25.1016C112.718 25.1016 112.718 25.1016 112.719 25.102Z" fill="#2D4F80"/>
<path fill-rule="evenodd" clip-rule="evenodd" d="M113.783 29.0155L112.951 28.5261L114.195 27.8128C115.041 27.3272 115.405 26.6686 115.29 26.0337C115.303 25.9641 115.31 25.8945 115.312 25.825V28.1384C115.306 28.1416 115.3 28.1444 115.295 28.1477L113.783 29.0155ZM112.551 28.2897L114.195 27.3468C114.197 27.3449 114.2 27.3435 114.203 27.3417C114.2 27.3435 114.197 27.3449 114.195 27.3468L112.551 28.2897ZM114.204 27.3412C114.206 27.3398 114.209 27.3384 114.211 27.337C114.209 27.3384 114.207 27.3398 114.204 27.3412ZM114.212 27.3365C114.214 27.3347 114.217 27.3333 114.219 27.3319C114.217 27.3333 114.214 27.3347 114.212 27.3365ZM114.22 27.3315C114.241 27.3199 114.26 27.3079 114.28 27.2963C114.26 27.3079 114.241 27.3199 114.22 27.3315ZM114.28 27.2962C114.288 27.2911 114.296 27.286 114.304 27.2809C114.296 27.286 114.288 27.2911 114.28 27.2962ZM114.306 27.2799C114.309 27.2785 114.311 27.2771 114.313 27.2758C114.311 27.2771 114.309 27.2785 114.306 27.2799ZM114.316 27.2735C114.318 27.273 114.319 27.2721 114.32 27.2716C114.319 27.2721 114.318 27.273 114.316 27.2735ZM114.324 27.2684C114.325 27.2679 114.325 27.2674 114.326 27.267C114.325 27.2674 114.325 27.2679 114.324 27.2684Z" fill="#4E6990"/>
<path fill-rule="evenodd" clip-rule="evenodd" d="M111.086 27.4275L104.318 23.4411L105.177 22.9509C105.492 22.8057 105.876 22.7329 106.26 22.7329C106.697 22.7329 107.134 22.828 107.469 23.0195L112.608 25.9684C112.775 26.0639 112.899 26.1743 112.983 26.2917C112.91 26.3645 112.819 26.4331 112.71 26.4953L111.086 27.4275Z" fill="#5B6F91"/>
<path fill-rule="evenodd" clip-rule="evenodd" d="M112.551 28.2897L111.086 27.4275L112.711 26.4953C112.819 26.4331 112.91 26.3645 112.984 26.2916C113.339 25.9396 113.285 25.4869 112.82 25.1655C112.819 25.1651 112.818 25.1641 112.817 25.1637C112.816 25.1628 112.815 25.1623 112.814 25.1618C112.812 25.1604 112.81 25.159 112.809 25.1576C112.808 25.1576 112.808 25.1572 112.808 25.1572C112.806 25.1558 112.803 25.1544 112.802 25.153C112.801 25.153 112.801 25.153 112.801 25.1525C112.775 25.1354 112.748 25.1182 112.719 25.102C112.719 25.1015 112.719 25.1015 112.719 25.1015C112.716 25.1001 112.713 25.0983 112.711 25.0969L107.571 22.148C107.235 21.9551 106.794 21.8586 106.352 21.8586C105.911 21.8586 105.469 21.9551 105.133 22.148L103.609 23.0228L102.145 22.1601L103.65 21.2965C104.395 20.8693 105.374 20.6555 106.352 20.6555C107.331 20.6555 108.309 20.8693 109.055 21.2965L114.195 24.2453C114.952 24.6804 115.325 25.2541 115.312 25.8251C115.31 25.8946 115.303 25.9642 115.29 26.0338C115.29 26.0324 115.289 26.0305 115.289 26.0291C115.207 26.4767 114.886 26.9122 114.327 27.267C114.326 27.2675 114.325 27.268 114.325 27.2684C114.323 27.2693 114.322 27.2703 114.32 27.2717C114.319 27.2721 114.318 27.2731 114.316 27.2735C114.315 27.2744 114.314 27.2754 114.313 27.2758C114.311 27.2772 114.309 27.2786 114.306 27.28C114.306 27.28 114.305 27.2805 114.305 27.2809C114.297 27.286 114.289 27.2911 114.28 27.2962C114.261 27.3078 114.241 27.3199 114.221 27.3315C114.221 27.3315 114.221 27.3315 114.22 27.332C114.218 27.3333 114.215 27.3347 114.212 27.3366C114.212 27.3366 114.212 27.3366 114.212 27.3371C114.209 27.3384 114.206 27.3398 114.204 27.3412C114.204 27.3417 114.204 27.3417 114.203 27.3417C114.2 27.3436 114.198 27.3449 114.195 27.3468L112.551 28.2897Z" fill="#4E6990"/>
<path fill-rule="evenodd" clip-rule="evenodd" d="M113.164 26.0291C113.092 25.8584 112.942 25.6961 112.71 25.563L107.569 22.6141C107.234 22.4212 106.792 22.3252 106.351 22.3252C105.91 22.3252 105.468 22.4212 105.132 22.6141L104.008 23.2588L103.607 23.0227L105.132 22.148C105.468 21.9551 105.91 21.8586 106.351 21.8586C106.792 21.8586 107.234 21.9551 107.569 22.148L112.71 25.0969C112.712 25.0982 112.715 25.1001 112.717 25.1015C112.718 25.1015 112.718 25.1015 112.718 25.102C112.747 25.1182 112.774 25.1353 112.8 25.1525C112.8 25.153 112.8 25.153 112.8 25.153C112.802 25.1544 112.805 25.1558 112.806 25.1571C112.807 25.1571 112.807 25.1576 112.807 25.1576C112.809 25.159 112.811 25.1604 112.813 25.1618C112.814 25.1622 112.815 25.1627 112.816 25.1636C112.817 25.1641 112.818 25.165 112.819 25.1655C113.174 25.4113 113.288 25.7337 113.164 26.0291Z" fill="#5B6F91"/>
<path fill-rule="evenodd" clip-rule="evenodd" d="M112.951 28.5263L112.551 28.2898L114.195 27.3468C114.197 27.345 114.2 27.3436 114.203 27.3417C114.203 27.3417 114.203 27.3417 114.204 27.3413C114.207 27.3399 114.209 27.3385 114.211 27.3371C114.212 27.3366 114.212 27.3366 114.212 27.3366C114.215 27.3348 114.218 27.3334 114.22 27.332C114.221 27.3315 114.221 27.3315 114.221 27.3315C114.241 27.3199 114.26 27.3079 114.28 27.2963C114.288 27.2912 114.297 27.2861 114.305 27.281C114.305 27.2805 114.306 27.2801 114.306 27.2801C114.308 27.2787 114.31 27.2773 114.313 27.2759C114.314 27.2754 114.315 27.2745 114.316 27.2736C114.317 27.2731 114.318 27.2722 114.32 27.2717C114.322 27.2703 114.323 27.2694 114.325 27.2685C114.325 27.268 114.326 27.2675 114.327 27.2671C114.886 26.9123 115.206 26.4767 115.289 26.0292C115.289 26.0306 115.29 26.0324 115.29 26.0338C115.405 26.6688 115.041 27.3274 114.195 27.813L112.951 28.5263Z" fill="#5B6F91"/>
<path fill-rule="evenodd" clip-rule="evenodd" d="M124.628 33.1429C124.544 33.0256 124.419 32.9152 124.253 32.8197L119.113 29.8703C118.779 29.6793 118.342 29.5842 117.905 29.5842C117.521 29.5842 117.137 29.657 116.821 29.8026L115.956 30.2966L115.646 30.1143L116.777 29.4654C117.113 29.2725 117.555 29.176 117.996 29.176C118.438 29.176 118.879 29.2725 119.215 29.465L124.355 32.4143C124.587 32.5474 124.737 32.7093 124.809 32.8809C124.941 32.5655 124.803 32.2204 124.391 31.9695C124.922 32.2932 125.001 32.7728 124.628 33.1429ZM124.388 31.9685C124.386 31.9671 124.384 31.9657 124.382 31.9644C124.384 31.9657 124.386 31.9671 124.388 31.9685ZM124.379 31.9625C124.378 31.9621 124.377 31.9616 124.376 31.9607C124.377 31.9616 124.378 31.9621 124.379 31.9625ZM124.371 31.9583C124.37 31.9578 124.369 31.9574 124.368 31.9569C124.369 31.9574 124.37 31.9578 124.371 31.9583ZM124.362 31.9533C124.362 31.9528 124.361 31.9524 124.36 31.9519C124.361 31.9524 124.362 31.9528 124.362 31.9533Z" fill="#452B69"/>
<path fill-rule="evenodd" clip-rule="evenodd" d="M125.985 36.2027L124.59 35.3813L125.84 34.6638C126.687 34.1787 127.051 33.5201 126.935 32.8851C126.947 32.8211 126.955 32.7566 126.957 32.6926V35.6447L125.985 36.2027ZM124.189 35.1452L125.841 34.1977C125.843 34.1963 125.846 34.1949 125.848 34.1935C125.846 34.1949 125.843 34.1963 125.841 34.1977L124.189 35.1452ZM125.856 34.1893C125.856 34.1893 125.856 34.1893 125.856 34.1893H125.856Z" fill="#523470"/>
<path fill-rule="evenodd" clip-rule="evenodd" d="M122.723 34.2826L115.955 30.2966L116.82 29.8027C117.136 29.657 117.52 29.5842 117.904 29.5842C118.341 29.5842 118.778 29.6793 119.112 29.8704L124.252 32.8197C124.419 32.9153 124.543 33.0256 124.627 33.143C124.553 33.2158 124.462 33.2844 124.354 33.3466L122.723 34.2826Z" fill="#5B6F91"/>
<path fill-rule="evenodd" clip-rule="evenodd" d="M124.187 35.1452L122.723 34.2825L124.354 33.3466C124.463 33.2844 124.554 33.2158 124.627 33.143C125.001 32.7729 124.922 32.2933 124.391 31.9695C124.39 31.9691 124.39 31.9686 124.389 31.9686C124.387 31.9672 124.385 31.9658 124.383 31.9644C124.382 31.964 124.381 31.9635 124.38 31.9626C124.379 31.9621 124.378 31.9617 124.377 31.9607C124.375 31.9598 124.373 31.9589 124.372 31.9584C124.372 31.9579 124.371 31.9575 124.37 31.957C124.368 31.9556 124.366 31.9542 124.364 31.9533C124.363 31.9528 124.362 31.9524 124.362 31.9519C124.359 31.951 124.357 31.9496 124.355 31.9482L119.215 28.9989C118.879 28.8064 118.437 28.7099 117.996 28.7099C117.555 28.7099 117.113 28.8064 116.777 28.9989L115.245 29.8778L113.781 29.0156L115.293 28.1478C115.299 28.1446 115.305 28.1418 115.31 28.1385C116.053 27.7174 117.025 27.5068 117.996 27.5068C118.975 27.5068 119.954 27.7206 120.699 28.1478L125.838 31.0971C126.603 31.5359 126.976 32.1161 126.955 32.6926C126.953 32.7566 126.946 32.8211 126.933 32.8851C126.933 32.8837 126.933 32.8823 126.933 32.8809C126.845 33.3586 126.486 33.8224 125.853 34.1893C125.853 34.1893 125.853 34.1893 125.853 34.1893C125.851 34.1907 125.848 34.1921 125.846 34.1935C125.844 34.1949 125.841 34.1963 125.838 34.1977L124.187 35.1452Z" fill="#523470"/>
<path fill-rule="evenodd" clip-rule="evenodd" d="M124.809 32.8808C124.738 32.7092 124.587 32.5473 124.356 32.4142L119.216 29.4649C118.88 29.2724 118.438 29.176 117.997 29.176C117.555 29.176 117.114 29.2724 116.778 29.4654L115.647 30.1142L115.246 29.8777L116.778 28.9988C117.114 28.8063 117.555 28.7098 117.997 28.7098C118.438 28.7098 118.88 28.8063 119.216 28.9988L124.356 31.9481C124.358 31.9495 124.36 31.9509 124.363 31.9518C124.363 31.9523 124.364 31.9527 124.364 31.9532C124.367 31.9541 124.369 31.9555 124.37 31.9569C124.371 31.9574 124.372 31.9579 124.373 31.9583C124.374 31.9588 124.376 31.9597 124.377 31.9606C124.378 31.9616 124.379 31.962 124.381 31.9625C124.382 31.9634 124.383 31.9639 124.384 31.9643C124.386 31.9657 124.388 31.9671 124.39 31.9685C124.391 31.9685 124.391 31.969 124.391 31.9694C124.804 32.2204 124.942 32.5654 124.809 32.8808Z" fill="#5B6F91"/>
<path fill-rule="evenodd" clip-rule="evenodd" d="M124.588 35.3813L124.188 35.1452L125.839 34.1977C125.841 34.1963 125.844 34.1949 125.846 34.1935C125.849 34.1921 125.851 34.1907 125.853 34.1893H125.854C126.486 33.8224 126.845 33.3586 126.933 32.8809C126.933 32.8823 126.934 32.8837 126.934 32.8851C127.049 33.52 126.685 34.1786 125.839 34.6638L124.588 35.3813Z" fill="#5B6F91"/>
<path opacity="0.3" fill-rule="evenodd" clip-rule="evenodd" d="M130.44 81.1358L129.58 80.6423L131.224 79.7078L132.076 80.1966L130.44 81.1358ZM126.512 83.389L126.799 82.223L129.579 80.6423L130.439 81.1358L126.512 83.389ZM132.075 80.1966L131.223 79.7077L138.921 75.3318V75.3151C138.941 75.8906 138.569 76.4704 137.805 76.9092L132.075 80.1966Z" fill="#92B6E7"/>
<path fill-rule="evenodd" clip-rule="evenodd" d="M136.595 40.4656C136.511 40.3478 136.386 40.2374 136.22 40.1423L131.08 37.193C130.746 37.0014 130.309 36.9063 129.871 36.9063C129.488 36.9063 129.104 36.9796 128.788 37.1248L128.16 37.4838L127.85 37.3015L128.745 36.7876C129.081 36.5951 129.522 36.4987 129.963 36.4987C130.405 36.4987 130.846 36.5951 131.182 36.7876L136.322 39.7369C136.554 39.87 136.704 40.0324 136.776 40.203C136.899 39.9095 136.788 39.5894 136.439 39.3446C136.897 39.6655 136.949 40.1149 136.595 40.4656ZM136.438 39.3445C136.435 39.3426 136.433 39.3407 136.431 39.3394C136.433 39.3407 136.435 39.3426 136.438 39.3445ZM136.428 39.3371C136.428 39.3366 136.427 39.3361 136.426 39.3352C136.427 39.3361 136.428 39.3366 136.428 39.3371ZM136.42 39.3315C136.42 39.3311 136.42 39.3311 136.42 39.3311C136.42 39.3311 136.42 39.3311 136.42 39.3315ZM136.413 39.3269C136.412 39.3264 136.412 39.3264 136.412 39.3264C136.412 39.3264 136.412 39.3264 136.413 39.3269ZM136.33 39.2754C136.33 39.2754 136.329 39.2754 136.329 39.2749C136.329 39.2754 136.33 39.2754 136.33 39.2754Z" fill="#2D4F80"/>
<path opacity="0.05" fill-rule="evenodd" clip-rule="evenodd" d="M130.774 66.0952L132.239 65.2544V60.1493L136.536 42.7145L137.805 41.9863C138.652 41.5007 139.016 40.8426 138.9 40.2072C138.913 40.1427 138.92 40.0782 138.922 40.0133V75.3319L131.223 79.7078L129.579 80.6424L126.799 82.2231L130.774 66.0952ZM137.805 41.5203C137.808 41.5189 137.81 41.517 137.813 41.5156C137.81 41.517 137.808 41.5189 137.805 41.5203L136.389 42.3324L137.805 41.5203ZM137.821 41.5105C137.819 41.5119 137.816 41.5137 137.813 41.5151C137.816 41.5137 137.819 41.5119 137.821 41.5105ZM137.831 41.5054C137.829 41.5068 137.826 41.5086 137.823 41.51C137.826 41.5086 137.829 41.5068 137.831 41.5054ZM137.892 41.4696C137.872 41.4817 137.852 41.4937 137.832 41.5053C137.852 41.4933 137.872 41.4817 137.892 41.4696ZM137.916 41.4543C137.908 41.4594 137.9 41.4645 137.892 41.4697C137.9 41.4645 137.908 41.4594 137.916 41.4543ZM137.925 41.4497C137.923 41.4511 137.92 41.4525 137.918 41.4539C137.92 41.4525 137.923 41.4511 137.925 41.4497ZM137.931 41.4451C137.93 41.446 137.929 41.4465 137.927 41.4474C137.929 41.4469 137.93 41.446 137.931 41.4451ZM137.938 41.4409C137.937 41.4414 137.937 41.4414 137.936 41.4418C137.937 41.4414 137.937 41.4414 137.938 41.4409Z" fill="white"/>
<path fill-rule="evenodd" clip-rule="evenodd" d="M128.158 37.4836L128.787 37.1246C129.103 36.9794 129.487 36.9061 129.87 36.9061C130.308 36.9061 130.745 37.0012 131.079 37.1928L136.219 40.1421C136.385 40.2372 136.51 40.3475 136.594 40.4654C136.52 40.5382 136.429 40.6063 136.321 40.669L134.925 41.4695L128.158 37.4836Z" fill="#5B6F91"/>
<path fill-rule="evenodd" clip-rule="evenodd" d="M136.389 42.3323L134.924 41.4696L136.32 40.6691C136.429 40.6064 136.52 40.5383 136.593 40.4654C136.947 40.1148 136.895 39.6654 136.437 39.3444C136.434 39.3426 136.432 39.3407 136.429 39.3393C136.429 39.3384 136.428 39.3379 136.426 39.337C136.426 39.3366 136.425 39.3361 136.424 39.3352C136.422 39.3342 136.42 39.3328 136.418 39.3315C136.418 39.331 136.417 39.331 136.417 39.331C136.415 39.3296 136.413 39.3282 136.411 39.3268C136.411 39.3264 136.411 39.3263 136.41 39.3263C136.385 39.3087 136.357 39.292 136.329 39.2753C136.329 39.2753 136.328 39.2753 136.328 39.2749C136.326 39.2735 136.323 39.2721 136.321 39.2707L131.18 36.3218C130.845 36.1289 130.403 36.0324 129.962 36.0324C129.521 36.0324 129.079 36.1289 128.743 36.3218L127.447 37.0653L125.982 36.2026L126.955 35.6447L127.259 35.4703C128.004 35.0427 128.983 34.8289 129.962 34.8289C130.94 34.8289 131.919 35.0427 132.664 35.4703L137.804 38.4192C138.568 38.8579 138.941 39.4372 138.921 40.0132C138.918 40.0782 138.911 40.1426 138.899 40.2071C138.899 40.2057 138.899 40.2043 138.898 40.2029C138.816 40.65 138.496 41.086 137.937 41.4408C137.936 41.4413 137.935 41.4413 137.935 41.4418C137.933 41.4431 137.931 41.4441 137.93 41.445C137.928 41.4459 137.927 41.4469 137.926 41.4473C137.925 41.4482 137.923 41.4487 137.923 41.4496C137.92 41.451 137.918 41.4524 137.916 41.4538C137.916 41.4538 137.915 41.4543 137.915 41.4543C137.907 41.4594 137.898 41.4645 137.89 41.4696C137.87 41.4816 137.851 41.4932 137.831 41.5053C137.83 41.5053 137.83 41.5053 137.83 41.5053C137.828 41.5067 137.825 41.5085 137.822 41.5099C137.822 41.5104 137.822 41.5104 137.821 41.5104C137.819 41.5118 137.816 41.5136 137.814 41.515C137.813 41.515 137.813 41.5155 137.813 41.5155C137.81 41.5169 137.807 41.5187 137.804 41.5201L136.389 42.3323Z" fill="#4E6990"/>
<path fill-rule="evenodd" clip-rule="evenodd" d="M130.773 66.0952L132.239 60.1493V65.2544L130.773 66.0952Z" fill="#5B6F91"/>
<path fill-rule="evenodd" clip-rule="evenodd" d="M136.775 40.203C136.703 40.0323 136.553 39.87 136.321 39.7369L131.181 36.7875C130.845 36.5951 130.403 36.4986 129.962 36.4986C129.521 36.4986 129.079 36.5951 128.743 36.7875L127.848 37.3014L127.447 37.0654L128.743 36.3219C129.079 36.1289 129.521 36.0325 129.962 36.0325C130.403 36.0325 130.845 36.1289 131.181 36.3219L136.321 39.2707C136.323 39.2721 136.326 39.2735 136.328 39.2749C136.328 39.2754 136.329 39.2754 136.329 39.2754C136.357 39.2921 136.385 39.3088 136.411 39.3264C136.411 39.3264 136.411 39.3264 136.412 39.3269C136.413 39.3283 136.416 39.3296 136.418 39.331C136.418 39.331 136.418 39.331 136.419 39.3315C136.42 39.3329 136.422 39.3343 136.424 39.3352C136.425 39.3361 136.426 39.3366 136.426 39.3371C136.428 39.338 136.429 39.3385 136.43 39.3394C136.432 39.3408 136.434 39.3426 136.437 39.3445C136.786 39.5894 136.898 39.9094 136.775 40.203Z" fill="#5B6F91"/>
<path fill-rule="evenodd" clip-rule="evenodd" d="M136.535 42.7144L136.599 42.4561L136.389 42.3323L137.804 41.5201C137.807 41.5188 137.81 41.5169 137.813 41.5155C137.813 41.5155 137.813 41.515 137.814 41.515C137.816 41.5136 137.819 41.5118 137.821 41.5104C137.822 41.5104 137.822 41.5104 137.822 41.5099C137.825 41.5085 137.828 41.5067 137.83 41.5053C137.83 41.5053 137.83 41.5053 137.83 41.5053C137.85 41.4937 137.87 41.4816 137.89 41.4696C137.898 41.4645 137.906 41.4594 137.914 41.4543C137.915 41.4543 137.915 41.4538 137.916 41.4538C137.918 41.4524 137.92 41.451 137.922 41.4496C137.923 41.4487 137.925 41.4483 137.926 41.4473C137.927 41.4464 137.928 41.4459 137.929 41.445C137.931 41.4441 137.933 41.4432 137.934 41.4418C137.935 41.4413 137.935 41.4413 137.936 41.4408C138.496 41.086 138.816 40.65 138.898 40.2029C138.899 40.2043 138.899 40.2057 138.899 40.2071C139.014 40.8425 138.65 41.5007 137.804 41.9863L136.535 42.7144Z" fill="#5B6F91"/>
</g>
<mask id="mask1" mask-type="alpha" maskUnits="userSpaceOnUse" x="47" y="18" width="92" height="86">
<path fill-rule="evenodd" clip-rule="evenodd" d="M125.988 85.5068L136.599 42.4561L96.5027 18.8384L47.6152 36.9063L85.132 85.5564C85.132 85.5564 116.107 103.097 115.927 103.622C115.746 104.147 138.389 90.3178 138.389 90.3178L125.988 85.5068Z" fill="white"/>
</mask>
<g mask="url(#mask1)">
<path fill-rule="evenodd" clip-rule="evenodd" d="M114.193 59.6344C115.683 60.4897 115.683 61.8806 114.193 62.7359L88.863 77.2682C88.4532 77.5033 87.789 77.5033 87.3793 77.2682C86.9699 77.033 86.9699 76.6523 87.3793 76.4171L112.709 61.8843C113.381 61.4989 113.381 60.8714 112.709 60.4855L110.254 59.0774C110.527 58.6697 110.775 58.2453 111.017 57.8121L114.193 59.6344Z" fill="#92B6E7"/>
<path fill-rule="evenodd" clip-rule="evenodd" d="M78.3191 71.2184L103.648 56.6856C105.139 55.8308 107.563 55.8304 109.053 56.6856L111.017 57.8122C110.776 58.2454 110.528 58.6698 110.255 59.0775L107.569 57.5372C106.898 57.1513 105.804 57.1513 105.132 57.5372L79.8023 72.0695C79.3925 72.3047 78.7288 72.3047 78.3191 72.0695C77.9093 71.8348 77.9093 71.4536 78.3191 71.2184Z" fill="#92B6E7"/>
<path fill-rule="evenodd" clip-rule="evenodd" d="M78.0141 71.6739L78.0117 36.2792L104.556 21.5744L108.268 21.3309L111.858 23.642L114.061 25.5468L88.1983 66.3026L79.7544 71.2481L78.0141 71.6739Z" fill="#92B6E7"/>
<path fill-rule="evenodd" clip-rule="evenodd" d="M87.8307 76.1444L79.8965 71.5922V37.3849L88.0757 41.163L87.8307 76.1444Z" fill="#76A9CF"/>
<path fill-rule="evenodd" clip-rule="evenodd" d="M115.31 25.8209V61.158L87.4438 76.9973L87.0723 76.8494V41.4603L115.31 25.8209Z" fill="#D4EAF2"/>
<path fill-rule="evenodd" clip-rule="evenodd" d="M99.6378 26.1136L105.176 22.9509C105.852 22.6397 106.841 22.6597 107.468 23.0196L112.607 25.9684C113.006 26.1966 113.166 26.5102 113.092 26.8079L99.0983 35.1179L87.8578 41.9743L79.8965 37.3849L99.6378 26.1136Z" fill="#FFFFFE"/>
<path fill-rule="evenodd" clip-rule="evenodd" d="M88.0753 40.9047V77.4421C87.8223 77.4356 87.5726 77.379 87.3794 77.2682C87.1777 77.1527 87.0765 77.0015 87.0732 76.8503L87.0723 76.8494V41.4603L88.0753 40.9047Z" fill="#92B6E7"/>
<path fill-rule="evenodd" clip-rule="evenodd" d="M78.0117 36.7208V36.2792H78.1531L78.1965 36.5789L78.0117 36.7208Z" fill="#FFFFFE"/>
<path fill-rule="evenodd" clip-rule="evenodd" d="M87.0742 41.9191V41.4669L87.211 41.6584L87.0742 41.9191Z" fill="#FFFFFE"/>
<path fill-rule="evenodd" clip-rule="evenodd" d="M88.8636 41.8791L114.193 27.3468C115.683 26.4915 115.683 25.1006 114.193 24.2453L109.053 21.2965C107.563 20.4417 105.139 20.4417 103.648 21.2965L78.3191 35.8293C77.9093 36.0644 77.9093 36.4457 78.3191 36.6808C78.7288 36.9155 79.3925 36.9155 79.8023 36.6808L105.132 22.148C105.804 21.7621 106.898 21.7621 107.569 22.148L112.71 25.0969C113.382 25.4823 113.382 26.1098 112.71 26.4953L87.3799 41.028C86.9706 41.2632 86.9706 41.6444 87.3799 41.8796C87.7897 42.1143 88.4539 42.1143 88.8636 41.8791Z" fill="#D4EAF2"/>
<path fill-rule="evenodd" clip-rule="evenodd" d="M95.4648 58.6326L108.627 51.081V37.9684L95.4648 45.5205V58.6326Z" fill="#FFFFFE"/>
<path fill-rule="evenodd" clip-rule="evenodd" d="M78.3184 36.6808C78.7282 36.9155 79.3918 36.9155 79.8016 36.6808L105.131 22.148C105.804 21.7621 106.897 21.7621 107.569 22.148L112.709 25.0969C113.149 25.3492 113.299 25.7054 113.163 26.0291C113.091 25.8584 112.941 25.6961 112.709 25.563L107.569 22.6141C106.897 22.2287 105.804 22.2287 105.131 22.6141L79.8016 37.1469C79.3918 37.3821 78.7282 37.3821 78.3184 37.1469C78.008 36.9688 77.9333 36.7068 78.0939 36.4878C78.1452 36.5579 78.219 36.6237 78.3184 36.6808Z" fill="#FFFFFE"/>
<path fill-rule="evenodd" clip-rule="evenodd" d="M87.3787 41.8797C87.7885 42.1144 88.4526 42.1144 88.8624 41.8792L114.192 27.3469C114.834 26.9786 115.198 26.5107 115.287 26.0292C115.404 26.6656 115.04 27.326 114.192 27.813L88.8624 42.3458C88.4526 42.581 87.7885 42.581 87.3787 42.3458C87.0684 42.1677 86.9941 41.9061 87.1542 41.6868C87.2056 41.7568 87.2798 41.8226 87.3787 41.8797Z" fill="#FFFFFE"/>
<path fill-rule="evenodd" clip-rule="evenodd" d="M125.838 66.4858C127.327 67.3405 127.327 68.732 125.838 69.5867L100.508 84.1195C100.099 84.3547 99.4339 84.3547 99.0241 84.1195C98.6144 83.8844 98.6144 83.5031 99.0241 83.268L124.353 68.7357C125.026 68.3498 125.026 67.7227 124.354 67.3373L121.899 65.9287C122.172 65.5215 122.42 65.0971 122.662 64.6639L125.838 66.4858Z" fill="#FC5252"/>
<path fill-rule="evenodd" clip-rule="evenodd" d="M89.9636 78.0697L115.293 63.5369C116.784 62.6816 119.208 62.6816 120.698 63.5369L122.662 64.6639C122.42 65.0971 122.172 65.5215 121.9 65.9287L119.214 64.388C118.542 64.0025 117.449 64.0025 116.777 64.388L91.4468 78.9208C91.0375 79.1559 90.3734 79.1559 89.9636 78.9208C89.5538 78.6856 89.5538 78.3044 89.9636 78.0697Z" fill="#FC5252"/>
<path fill-rule="evenodd" clip-rule="evenodd" d="M89.6581 78.5256L89.6562 43.1305L116.2 28.4256L119.912 28.1826L123.502 30.4928L125.705 32.3985L99.8424 73.1538L91.3985 78.0993L89.6581 78.5256Z" fill="#FC5252"/>
<path fill-rule="evenodd" clip-rule="evenodd" d="M99.4772 82.9953L91.543 78.4435V44.2362L99.7218 48.0139L99.4772 82.9953Z" fill="#FFCDCD"/>
<path fill-rule="evenodd" clip-rule="evenodd" d="M126.956 32.6722V68.0094L99.0903 83.8487L98.7188 83.7007V48.3117L126.956 32.6722Z" fill="#FFA3A3"/>
<path fill-rule="evenodd" clip-rule="evenodd" d="M111.284 32.9643L116.822 29.8026C117.498 29.4914 118.487 29.5113 119.114 29.8703L124.254 32.8196C124.652 33.0483 124.812 33.3613 124.739 33.6586L110.744 41.9686L99.5038 48.8255L91.543 44.2361L111.284 32.9643Z" fill="#FFFFFE"/>
<path fill-rule="evenodd" clip-rule="evenodd" d="M99.7213 47.7564V84.2934C99.4683 84.2869 99.2186 84.2303 99.0254 84.1195C98.8238 84.004 98.7225 83.8532 98.7197 83.7016L98.7188 83.7006V48.3116L99.7213 47.7564Z" fill="#FC5252"/>
<path fill-rule="evenodd" clip-rule="evenodd" d="M89.6562 43.5716V43.1305H89.7972L89.8406 43.4301L89.6562 43.5716Z" fill="#FFFFFE"/>
<path fill-rule="evenodd" clip-rule="evenodd" d="M98.7188 48.7704V48.3182L98.8555 48.5102L98.7188 48.7704Z" fill="#FFFFFE"/>
<path fill-rule="evenodd" clip-rule="evenodd" d="M100.509 48.7305L125.838 34.1977C127.328 33.3434 127.328 31.952 125.838 31.0972L120.698 28.1479C119.208 27.2931 116.784 27.2931 115.293 28.1479L89.9636 42.6807C89.5538 42.9158 89.5538 43.2971 89.9636 43.5317C90.3734 43.7669 91.0375 43.7669 91.4468 43.5317L116.777 28.9989C117.449 28.6135 118.542 28.6135 119.214 28.9989L124.354 31.9483C125.026 32.3341 125.026 32.9607 124.354 33.3466L99.0245 47.8794C98.6152 48.1146 98.6147 48.4958 99.0245 48.7305C99.4343 48.9656 100.099 48.9656 100.509 48.7305Z" fill="#FFA3A3"/>
<path fill-rule="evenodd" clip-rule="evenodd" d="M107.109 65.484L120.272 57.9323V44.8197L107.109 52.3713V65.484Z" fill="#FFFFFE"/>
<path fill-rule="evenodd" clip-rule="evenodd" d="M89.9627 43.5317C90.3725 43.7668 91.0366 43.7668 91.4459 43.5317L116.776 28.9989C117.448 28.6135 118.541 28.6135 119.213 28.9989L124.353 31.9482C124.794 32.201 124.943 32.5563 124.807 32.8809C124.736 32.7093 124.585 32.5475 124.353 32.4143L119.213 29.465C118.541 29.0796 117.448 29.0796 116.776 29.4655L91.4459 43.9978C91.0366 44.233 90.3725 44.233 89.9627 43.9978C89.6523 43.8202 89.5781 43.5581 89.7382 43.3392C89.7896 43.4093 89.8633 43.4746 89.9627 43.5317Z" fill="#FFFFFE"/>
<path fill-rule="evenodd" clip-rule="evenodd" d="M99.025 48.7304C99.4348 48.9656 100.099 48.9656 100.509 48.7304L125.839 34.1977C126.48 33.8294 126.844 33.3623 126.933 32.8809C127.051 33.5173 126.687 34.1772 125.839 34.6638L100.509 49.1966C100.099 49.4317 99.4348 49.4317 99.025 49.1966C98.7146 49.0185 98.6409 48.7569 98.8005 48.538C98.8518 48.608 98.9261 48.6734 99.025 48.7304Z" fill="#FFFFFE"/>
<path fill-rule="evenodd" clip-rule="evenodd" d="M137.804 73.8082C139.294 74.663 139.294 76.0544 137.804 76.9092L112.474 91.4416C112.065 91.6767 111.4 91.6767 110.991 91.4416C110.581 91.2064 110.581 90.8256 110.991 90.5905L136.32 76.0577C136.992 75.6723 136.992 75.0452 136.321 74.6593L133.866 73.2512C134.139 72.8435 134.386 72.4192 134.628 71.986L137.804 73.8082Z" fill="#92B6E7"/>
<path fill-rule="evenodd" clip-rule="evenodd" d="M101.928 85.3917L127.258 70.8589C128.748 70.0045 131.173 70.0041 132.663 70.8589L134.627 71.9859C134.385 72.4191 134.137 72.8435 133.864 73.2512L131.179 71.7104C130.507 71.3245 129.414 71.3245 128.742 71.7104L103.412 86.2427C103.002 86.4779 102.338 86.4779 101.928 86.2427C101.519 86.0081 101.519 85.6268 101.928 85.3917Z" fill="#92B6E7"/>
<path fill-rule="evenodd" clip-rule="evenodd" d="M101.623 85.8477L101.621 50.4526L128.165 35.7477L131.877 35.5047L135.467 37.8154L137.67 39.7207L111.807 80.4764L103.364 85.4219L101.623 85.8477Z" fill="#92B6E7"/>
<path fill-rule="evenodd" clip-rule="evenodd" d="M111.442 90.3177L103.508 85.766V51.5582L111.687 55.3368L111.442 90.3177Z" fill="#76A9CF"/>
<path fill-rule="evenodd" clip-rule="evenodd" d="M138.921 39.9943V75.3319L111.055 91.1707L110.684 91.0232V55.6337L138.921 39.9943Z" fill="#D7E8FE"/>
<path fill-rule="evenodd" clip-rule="evenodd" d="M123.249 40.2869L128.787 37.1247C129.463 36.8135 130.452 36.8334 131.079 37.1929L136.219 40.1422C136.617 40.3704 136.777 40.6839 136.704 40.9812L122.71 49.2912L111.469 56.148L103.508 51.5582L123.249 40.2869Z" fill="#FFFFFE"/>
<path fill-rule="evenodd" clip-rule="evenodd" d="M111.687 55.0786V91.6155C111.434 91.6095 111.184 91.5529 110.991 91.4416C110.789 91.3261 110.688 91.1754 110.685 91.0242L110.684 91.0233V55.6337L111.687 55.0786Z" fill="#92B6E7"/>
<path fill-rule="evenodd" clip-rule="evenodd" d="M101.621 50.8941V50.4526H101.763L101.806 50.7527L101.621 50.8941Z" fill="#FFFFFE"/>
<path fill-rule="evenodd" clip-rule="evenodd" d="M110.684 56.0924V55.6402L110.82 55.8322L110.684 56.0924Z" fill="#FFFFFE"/>
<path fill-rule="evenodd" clip-rule="evenodd" d="M112.473 56.0529L137.803 41.5206C139.293 40.6653 139.293 39.2744 137.803 38.4191L132.663 35.4703C131.173 34.6155 128.748 34.6155 127.258 35.4703L101.928 50.003C101.519 50.2377 101.519 50.6194 101.928 50.8546C102.338 51.0888 103.002 51.0888 103.412 50.8541L128.742 36.3218C129.414 35.9354 130.507 35.9354 131.179 36.3218L136.319 39.2707C136.991 39.6561 136.991 40.2836 136.319 40.669L110.989 55.2018C110.58 55.4365 110.58 55.8182 110.989 56.0529C111.399 56.2876 112.063 56.2876 112.473 56.0529Z" fill="#D4EAF2"/>
<path fill-rule="evenodd" clip-rule="evenodd" d="M119.076 72.8064L132.239 65.2543V52.1422L119.076 59.6938V72.8064Z" fill="#FFFFFE"/>
<path fill-rule="evenodd" clip-rule="evenodd" d="M101.931 50.8542C102.341 51.0889 103.005 51.0889 103.415 50.8542L128.745 36.3219C129.417 35.9355 130.511 35.9355 131.182 36.3219L136.323 39.2707C136.762 39.523 136.913 39.8788 136.776 40.203C136.704 40.0323 136.555 39.87 136.323 39.7368L131.182 36.7875C130.511 36.4021 129.417 36.4021 128.745 36.7875L103.415 51.3203C103.005 51.5555 102.341 51.5555 101.931 51.3203C101.621 51.1422 101.547 50.8802 101.707 50.6613C101.758 50.7317 101.833 50.7971 101.931 50.8542Z" fill="#FFFFFE"/>
<path fill-rule="evenodd" clip-rule="evenodd" d="M110.99 56.053C111.399 56.2877 112.064 56.2877 112.473 56.053L137.804 41.5207C138.445 41.1524 138.809 40.6844 138.898 40.203C139.015 40.8393 138.652 41.4998 137.804 41.9863L112.473 56.5191C112.064 56.7543 111.399 56.7543 110.99 56.5191C110.679 56.341 110.606 56.079 110.766 55.86C110.817 55.9305 110.891 55.9959 110.99 56.053Z" fill="#FFFFFE"/>
</g>
<path opacity="0.05" fill-rule="evenodd" clip-rule="evenodd" d="M100.02 160.001C99.3641 160.001 98.7074 159.858 98.2066 159.57C97.2046 158.996 97.2046 158.064 98.2066 157.489L144.991 130.637C145.492 130.349 146.148 130.206 146.804 130.206C147.461 130.206 148.117 130.349 148.618 130.637C149.62 131.211 149.62 132.143 148.618 132.717L101.833 159.571C101.333 159.858 100.676 160.001 100.02 160.001Z" fill="#000E4B"/>
<path fill-rule="evenodd" clip-rule="evenodd" d="M156.614 116.091C156.57 116.015 156.481 115.976 156.395 115.995L153.564 116.605L154.679 118.489L156.592 116.328C156.65 116.262 156.659 116.166 156.614 116.091Z" fill="#D4EAF2"/>
<path fill-rule="evenodd" clip-rule="evenodd" d="M155.496 117.48C155.493 117.075 155.203 116.583 154.847 116.384C154.683 116.291 154.535 116.28 154.423 116.332C151.153 116.305 147.936 117.16 145.117 118.807L144.912 118.927L148.427 124.87L149.465 124.186C151.662 122.738 153.514 120.83 154.891 118.596L155.335 117.875C155.436 117.802 155.498 117.668 155.496 117.48Z" fill="#381DDB"/>
<path fill-rule="evenodd" clip-rule="evenodd" d="M149.135 123.286C149.123 121.732 148.009 119.851 146.649 119.084C145.289 118.318 144.195 118.956 144.207 120.51C144.22 122.065 145.333 123.946 146.693 124.712C148.054 125.479 149.146 124.84 149.135 123.286Z" fill="#D7E8FE"/>
<path fill-rule="evenodd" clip-rule="evenodd" d="M127.565 137.786L148.428 124.87L144.913 118.927L123.412 130.764L127.565 137.786Z" fill="#D7E8FE"/>
<path fill-rule="evenodd" clip-rule="evenodd" d="M128.4 135.915C128.386 134.078 127.071 131.855 125.463 130.95C123.855 130.044 122.564 130.798 122.578 132.635C122.593 134.471 123.907 136.694 125.515 137.6C127.123 138.506 128.415 137.751 128.4 135.915Z" fill="#D4EAF2"/>
<path fill-rule="evenodd" clip-rule="evenodd" d="M127.21 136.61C127.196 134.774 125.881 132.551 124.274 131.645C122.666 130.739 121.374 131.493 121.389 133.33C121.403 135.166 122.718 137.39 124.326 138.295C125.933 139.201 127.225 138.447 127.21 136.61Z" fill="#D4EAF2"/>
<path fill-rule="evenodd" clip-rule="evenodd" d="M98.7749 154.603L126.375 138.481L122.222 131.459L94.6211 147.581L98.7749 154.603Z" fill="#D7E8FE"/>
<path fill-rule="evenodd" clip-rule="evenodd" d="M99.6091 152.733C99.5951 150.896 98.2799 148.673 96.672 147.767C95.0642 146.861 93.7728 147.616 93.7872 149.452C93.8012 151.288 95.1169 153.511 96.7243 154.418C98.3317 155.324 99.6236 154.569 99.6091 152.733Z" fill="#D4EAF2"/>
<path fill-rule="evenodd" clip-rule="evenodd" d="M98.5673 152.145C98.5043 151.061 97.6157 149.711 96.5833 149.129C95.5509 148.548 94.7659 148.955 94.8298 150.039C94.8928 151.123 95.7815 152.473 96.8138 153.055C97.8458 153.637 98.6313 153.229 98.5673 152.145Z" fill="#381DDB"/>
<path fill-rule="evenodd" clip-rule="evenodd" d="M128.61 135.792C128.596 133.956 127.281 131.733 125.673 130.827C125.026 130.462 124.431 130.371 123.951 130.507C124.472 129.965 125.328 129.901 126.303 130.45C127.91 131.356 129.226 133.579 129.24 135.415C129.249 136.512 128.789 137.218 128.077 137.42C128.416 137.068 128.616 136.516 128.61 135.792Z" fill="#FFFFFE"/>
<path fill-rule="evenodd" clip-rule="evenodd" d="M128.61 135.792C128.596 133.956 127.281 131.733 125.674 130.827C124.87 130.374 124.145 130.337 123.623 130.641L122.059 131.555L122.804 132.814C122.94 134.485 124.065 136.387 125.467 137.317L126.212 138.576L127.776 137.663C128.299 137.358 128.618 136.711 128.61 135.792Z" fill="#381DDB"/>
<path fill-rule="evenodd" clip-rule="evenodd" d="M127.047 136.706C127.033 134.869 125.717 132.646 124.11 131.74C122.502 130.835 121.211 131.589 121.225 133.425C121.24 135.262 122.554 137.485 124.162 138.391C125.77 139.297 127.061 138.542 127.047 136.706Z" fill="#D7E8FE"/>
<path fill-rule="evenodd" clip-rule="evenodd" d="M97.2687 152.96L95.4765 149.931L89.6267 153.348C88.7842 153.84 88.5033 154.917 88.998 155.753C89.4932 156.59 90.5764 156.87 91.4184 156.378L97.2687 152.96Z" fill="#FFA3A3"/>
<path fill-rule="evenodd" clip-rule="evenodd" d="M97.6272 152.153C97.6211 151.361 97.0536 150.401 96.36 150.011C95.666 149.62 95.1092 149.946 95.1153 150.738C95.1218 151.53 95.6889 152.49 96.3829 152.88C97.076 153.271 97.6332 152.946 97.6272 152.153Z" fill="#FFA3A3"/>
<path fill-rule="evenodd" clip-rule="evenodd" d="M104.129 141.459L103.252 140.965C102.748 140.68 102.082 140.752 101.376 141.164L98.3691 142.92C97.8021 143.251 97.3442 144.053 97.3494 144.707L97.361 146.203C97.3629 146.454 97.2397 146.742 97.0586 146.954L97.1711 147.647L96.422 147.22L96.4239 147.219C96.3151 147.164 96.246 147.039 96.2446 146.855L96.2325 145.36C96.2222 143.996 97.1762 142.324 98.3593 141.632L101.365 139.877C102.37 139.29 103.318 139.19 104.035 139.593L104.912 140.088C105.416 140.371 106.082 140.3 106.789 139.888L118.906 132.81C119.063 132.718 119.204 132.71 119.307 132.771V132.77L120.054 133.195L119.414 133.44C119.326 133.707 119.138 133.968 118.916 134.097L106.799 141.175C105.794 141.762 104.846 141.863 104.129 141.459Z" fill="#381DDB"/>
<path fill-rule="evenodd" clip-rule="evenodd" d="M104.012 141.396C103.508 141.113 102.842 141.183 102.136 141.596L99.1289 143.352C98.5618 143.683 98.104 144.485 98.1091 145.139L98.1208 146.635C98.1236 146.99 97.8762 147.424 97.5677 147.604C97.2597 147.784 97.0072 147.642 97.0044 147.287L96.9923 145.791C96.982 144.427 97.936 142.756 99.1191 142.065L102.125 140.309C103.13 139.722 104.078 139.621 104.794 140.024L105.671 140.519C106.175 140.803 106.842 140.732 107.549 140.319L119.666 133.241C119.975 133.061 120.227 133.203 120.229 133.559C120.232 133.914 119.985 134.348 119.676 134.528L107.558 141.606C106.554 142.194 105.606 142.294 104.889 141.891L104.012 141.396Z" fill="#381DDB"/>
<path fill-rule="evenodd" clip-rule="evenodd" d="M98.0723 145.386L98.0835 146.881L98.0789 146.912C98.1069 146.818 98.1223 146.724 98.1213 146.634L98.1097 145.139C98.1097 145.097 98.1162 145.052 98.1195 145.009C98.091 145.137 98.0709 145.264 98.0723 145.386Z" fill="#FFFFFE"/>
<path opacity="0.2" fill-rule="evenodd" clip-rule="evenodd" d="M87.571 121.492C85.1361 121.492 82.7013 120.958 80.8437 119.893C77.1277 117.76 77.1277 114.304 80.8432 112.173C82.7008 111.107 85.1357 110.574 87.5705 110.574C90.0059 110.574 92.4408 111.107 94.2988 112.173C98.0148 114.304 98.0148 117.76 94.2992 119.893C92.4412 120.958 90.0064 121.492 87.571 121.492Z" fill="#000E4B"/>
<path fill-rule="evenodd" clip-rule="evenodd" d="M98.3964 111.364V108.344H97.8228C97.307 107.462 96.4492 106.632 95.2255 105.93C90.9989 103.505 84.1451 103.505 79.9175 105.93C78.6938 106.632 77.836 107.462 77.3212 108.344H76.748V111.347H76.7485C76.7415 112.942 77.7968 114.538 79.918 115.755C84.1451 118.181 90.9989 118.181 95.2259 115.755C97.3397 114.543 98.3964 112.953 98.3964 111.364Z" fill="#FC5252"/>
<path fill-rule="evenodd" clip-rule="evenodd" d="M95.2246 112.735C90.9975 115.16 84.1438 115.16 79.9162 112.735C75.6896 110.31 75.6891 106.377 79.9162 103.952C84.1433 101.527 90.9975 101.527 95.2242 103.953C99.4517 106.377 99.4517 110.31 95.2246 112.735Z" fill="#FFA3A3"/>
<path fill-rule="evenodd" clip-rule="evenodd" d="M95.2234 112.735C90.9963 115.16 84.1426 115.16 79.9155 112.735C77.8899 111.573 76.8454 110.064 76.7614 108.541C76.6699 110.196 77.7144 111.867 79.9155 113.13C84.1426 115.556 90.9963 115.556 95.2234 113.13C97.4249 111.867 98.4685 110.196 98.3775 108.541C98.293 110.064 97.2494 111.573 95.2234 112.735Z" fill="#FFFFFE"/>
<path fill-rule="evenodd" clip-rule="evenodd" d="M82.3535 110.4C82.171 110.296 82.0679 110.153 82.0684 110.004L82.0791 105.957C82.0796 105.649 82.5169 105.399 83.0545 105.399C83.5931 105.399 84.0276 105.65 84.0272 105.96L84.0183 109.314L93.8171 108.122C94.344 108.058 94.8607 108.251 94.9722 108.553C95.0842 108.855 94.7477 109.152 94.2217 109.216L83.2445 110.551C82.9565 110.586 82.6569 110.545 82.4282 110.438L82.3535 110.4Z" fill="#FFFFFE"/>
<path opacity="0.05" fill-rule="evenodd" clip-rule="evenodd" d="M31.628 76.9857L23.5859 72.3718L31.628 67.7579L39.67 72.3718L31.628 76.9857Z" fill="#000E4B"/>
<path fill-rule="evenodd" clip-rule="evenodd" d="M39.6685 66.514L31.627 71.1275V61.9001L39.6685 57.2862V66.514Z" fill="#FC5252"/>
<path fill-rule="evenodd" clip-rule="evenodd" d="M31.628 61.9001L23.5859 57.2862L31.6275 52.6723L39.6696 57.2867L31.628 61.9001Z" fill="#FFA3A3"/>
<path fill-rule="evenodd" clip-rule="evenodd" d="M31.628 71.1275L23.5859 66.514V57.2862L31.628 61.9001V71.1275Z" fill="#FC5252"/>
<path fill-rule="evenodd" clip-rule="evenodd" d="M28.732 66.1426L26.4824 64.8523V62.2717L28.732 63.562V66.1426Z" fill="#FFFFFE"/>
<path fill-rule="evenodd" clip-rule="evenodd" d="M34.408 128.219L42.7404 123.308C43.4423 122.817 43.993 121.827 43.994 120.998L43.9996 120.348C44 119.822 43.7788 119.482 43.4376 119.384L27.0352 128.452L13.6777 135.631L13.6899 140.021L34.408 128.219Z" fill="#FFFFFE"/>
<path fill-rule="evenodd" clip-rule="evenodd" d="M13.2676 142.272L13.7105 142.526L13.7922 142.386L13.5163 142.17L13.2676 142.272Z" fill="#FFFFFE"/>
<path fill-rule="evenodd" clip-rule="evenodd" d="M13.2793 136.44L13.7329 136.7L13.6195 136.455L13.2793 136.44Z" fill="#FFFFFE"/>
<path fill-rule="evenodd" clip-rule="evenodd" d="M0 118.159L16.0995 108.94L30.0623 116.968L13.9629 126.186L0 118.159Z" fill="#FFFFFE"/>
</svg>
