<svg width="30" height="30" viewBox="0 0 30 30" fill="none" xmlns="http://www.w3.org/2000/svg">
<path d="M11.25 22.2658H7.5V9.14073H11.25V22.2658ZM9.49123 8.33638C8.51998 8.33638 7.73438 7.54887 7.73438 6.57761C7.73438 5.60636 8.52189 4.81885 9.49123 4.81885C10.4625 4.8207 11.25 5.60821 11.25 6.57761C11.25 7.54887 10.4625 8.33638 9.49123 8.33638ZM24.375 22.2658H20.625V14.1508C20.625 13.2001 20.3531 12.5345 19.185 12.5345C17.2481 12.5345 16.875 14.1508 16.875 14.1508V22.2658H13.125V9.14073H16.875V10.3951C17.4112 9.9845 18.7499 9.14258 20.625 9.14258C21.84 9.14258 24.375 9.87008 24.375 14.2651V22.2658Z" fill="#222222"/>
</svg>
