<svg width="134" height="50" viewBox="0 0 134 50" fill="none" xmlns="http://www.w3.org/2000/svg">
<rect width="134" height="50" fill="white"/>
<path d="M27.6827 39.2446C27.6827 40.3542 28.1847 40.9091 29.1885 40.9091C30.2309 40.9091 31.0996 40.6957 31.7946 40.2689L31.505 47.5032C29.6518 49.1677 27.5669 50 25.2504 50C20.8875 50 18.5131 48.1434 18.127 44.4302C15.8104 48.1434 12.6831 50 8.74496 50C4.84544 50 2.31655 49.0184 1.15827 47.0551C0.386091 45.8173 0 44.4089 0 42.8297C0 41.2505 0.115827 39.7994 0.347482 38.4763L3.59065 18.3099H13.436L10.714 35.3393C10.5982 36.1076 10.5403 36.8758 10.5403 37.644C10.5403 39.6927 11.5827 40.717 13.6676 40.717C15.405 40.717 16.795 40.0555 17.8374 38.7324L21.1385 18.3099H30.9838L27.7406 38.4763C27.702 38.7324 27.6827 38.9885 27.6827 39.2446Z" fill="#381DDB"/>
<path d="M62.5603 39.2446C62.5603 40.3542 63.0622 40.9091 64.0661 40.9091C65.1085 40.9091 65.9772 40.6957 66.6722 40.2689L66.3826 47.5032C64.5294 49.1677 62.4445 50 60.128 50C55.881 50 53.5258 48.2928 53.0625 44.8784C51.132 48.2928 48.2943 50 44.5492 50C38.2173 50 35.0513 46.991 35.0513 40.9731C35.0513 39.9488 35.1479 38.8178 35.3409 37.58L36.5571 30.0896C37.1748 26.2484 38.5841 23.1968 40.7848 20.9347C43.0241 18.63 46.1128 17.4776 50.051 17.4776C52.4834 17.4776 54.4138 18.0538 55.8423 19.2061L58.7959 0.512161H68.6992L62.6182 38.4763C62.5796 38.7324 62.5603 38.9885 62.5603 39.2446ZM45.4179 36.1716C45.3407 36.5557 45.3021 37.0892 45.3021 37.7721C45.3021 38.455 45.5916 39.1379 46.1708 39.8207C46.7499 40.4609 47.7151 40.781 49.0664 40.781C50.4564 40.781 51.6533 40.1835 52.6571 38.9885L54.3945 28.233C53.9698 27.166 52.966 26.6325 51.383 26.6325C48.4101 26.6325 46.6727 28.2117 46.1708 31.37L45.4179 36.1716Z" fill="#381DDB"/>
<path d="M83.5884 40.9091C84.4764 40.9091 85.2679 40.6957 85.9629 40.2689L85.6733 47.5032C83.8587 49.1677 81.7931 50 79.4765 50C75.9631 50 73.6852 49.1037 72.6427 47.3111C71.9478 46.1161 71.6003 44.857 71.6003 43.5339C71.6003 42.1682 71.6775 40.9731 71.8319 39.9488L75.3068 18.3099H85.1521L81.9089 38.4763C81.8703 38.7324 81.851 38.9671 81.851 39.1805C81.851 40.3329 82.4301 40.9091 83.5884 40.9091ZM76.465 7.87452C76.465 5.14298 77.0056 3.15834 78.0866 1.92061C79.2063 0.640204 80.9244 0 83.2409 0C86.4841 0 88.1057 1.57917 88.1057 4.73752C88.1057 7.42638 87.5459 9.38967 86.4262 10.6274C85.3451 11.8651 83.627 12.484 81.2719 12.484C78.0673 12.484 76.465 10.9475 76.465 7.87452Z" fill="#381DDB"/>
<path d="M118.48 49.1037H107.708L103.596 40.2049L96.6466 49.1037H85.8746L98.384 33.3547L90.8552 17.8617H101.801L105.739 26.6325L112.515 17.8617H123.461L110.893 33.4187L118.48 49.1037Z" fill="#381DDB"/>
<path d="M122.359 45.3905C122.359 42.659 122.9 40.6743 123.981 39.4366C125.062 38.1562 126.78 37.516 129.135 37.516C132.378 37.516 134 39.0952 134 42.2535C134 44.9424 133.44 46.9057 132.321 48.1434C131.239 49.3811 129.521 50 127.166 50C123.962 50 122.359 48.4635 122.359 45.3905Z" fill="#381DDB"/>
</svg>
