<svg width="220" height="72" viewBox="0 0 220 72" fill="none" xmlns="http://www.w3.org/2000/svg">
<path d="M45.4493 56.5122C45.4493 58.1101 46.2733 58.9091 47.9214 58.9091C49.6329 58.9091 51.0591 58.6018 52.2001 57.9872L51.7247 68.4046C48.6821 70.8015 45.2591 72 41.4558 72C34.293 72 30.3946 69.3265 29.7607 63.9795C25.9574 69.3265 20.823 72 14.3574 72C7.95521 72 3.80329 70.5864 1.90164 67.7593C0.633881 65.977 0 63.9488 0 61.6748C0 59.4008 0.190164 57.3111 0.570493 55.4059L5.89509 26.3662H22.0591L17.5902 50.8886C17.4 51.9949 17.3049 53.1012 17.3049 54.2074C17.3049 57.1575 19.0164 58.6325 22.4394 58.6325C25.2918 58.6325 27.5738 57.6799 29.2853 55.7746L34.705 26.3662H50.8689L45.5443 55.4059C45.481 55.7746 45.4493 56.1434 45.4493 56.5122Z" fill="white"/>
<path d="M102.711 56.5122C102.711 58.1101 103.535 58.9091 105.183 58.9091C106.895 58.9091 108.321 58.6018 109.462 57.9872L108.986 68.4046C105.944 70.8015 102.521 72 98.7175 72C91.7449 72 87.8782 69.5416 87.1175 64.6248C83.9481 69.5416 79.2891 72 73.1404 72C62.7448 72 57.547 67.6671 57.547 59.0013C57.547 57.5262 57.7054 55.8976 58.0224 54.1152L60.0191 43.3291C61.0333 37.7977 63.347 33.4033 66.9601 30.146C70.6366 26.8271 75.7077 25.1677 82.1732 25.1677C86.1667 25.1677 89.3361 25.9974 91.6815 27.6568L96.5306 0.737512H112.79L102.806 55.4059C102.743 55.7746 102.711 56.1434 102.711 56.5122ZM74.5667 52.0871C74.4399 52.6402 74.3765 53.4085 74.3765 54.3918C74.3765 55.3752 74.8519 56.3585 75.8027 57.3419C76.7536 58.2638 78.3383 58.7247 80.5569 58.7247C82.8388 58.7247 84.8038 57.8643 86.4519 56.1434L89.3044 40.6556C88.6071 39.1191 86.959 38.3508 84.3601 38.3508C79.4793 38.3508 76.6268 40.6248 75.8027 45.1729L74.5667 52.0871Z" fill="white"/>
<path d="M137.235 58.9091C138.693 58.9091 139.992 58.6018 141.133 57.9872L140.658 68.4046C137.678 70.8015 134.287 72 130.484 72C124.716 72 120.976 70.7093 119.264 68.128C118.123 66.4072 117.553 64.5941 117.553 62.6889C117.553 60.7222 117.679 59.0013 117.933 57.5263L123.638 26.3662H139.802L134.477 55.4059C134.414 55.7746 134.382 56.1127 134.382 56.42C134.382 58.0794 135.333 58.9091 137.235 58.9091ZM125.54 11.3393C125.54 7.40589 126.427 4.54802 128.202 2.76568C130.04 0.921894 132.861 0 136.664 0C141.989 0 144.651 2.27401 144.651 6.82202C144.651 10.694 143.732 13.5211 141.894 15.3035C140.119 17.0858 137.298 17.977 133.431 17.977C128.17 17.977 125.54 15.7644 125.54 11.3393Z" fill="white"/>
<path d="M194.519 70.7093H176.834L170.083 57.895L158.674 70.7093H140.988L161.526 48.0307L149.165 25.7209H167.136L173.601 38.3508L184.726 25.7209H202.697L182.064 48.1229L194.519 70.7093Z" fill="white"/>
<path d="M200.888 65.3624C200.888 61.4289 201.776 58.5711 203.551 56.7887C205.326 54.9449 208.146 54.023 212.013 54.023C217.338 54.023 220 56.2971 220 60.8451C220 64.717 219.081 67.5442 217.243 69.3265C215.468 71.1088 212.647 72 208.78 72C203.519 72 200.888 69.7875 200.888 65.3624Z" fill="white"/>
</svg>
