<svg width="30" height="30" viewBox="0 0 30 30" fill="none" xmlns="http://www.w3.org/2000/svg">
<path fill-rule="evenodd" clip-rule="evenodd" d="M17.6885 7.016H16.6692V11.4766C16.6692 11.8746 16.7033 12.1444 16.7598 12.3153C16.8623 12.6008 17.0894 12.7343 17.4184 12.7343C17.7913 12.7343 18.1792 12.5081 18.5862 12.0416V12.6566H19.6082V7.016H18.5862V11.3274C18.3594 11.6475 18.1448 11.8059 17.9404 11.8059C17.8036 11.8059 17.7231 11.7248 17.7007 11.5665C17.6885 11.533 17.6885 11.4087 17.6885 11.169V7.016ZM13.1288 7.52638C12.9115 7.81149 12.809 8.25221 12.809 8.85528V10.8305C12.809 11.4299 12.9115 11.8749 13.1288 12.157C13.4114 12.5418 13.8095 12.7343 14.319 12.7343C14.8309 12.7343 15.2286 12.5418 15.5113 12.157C15.7255 11.8749 15.828 11.4302 15.828 10.8305V8.85528C15.828 8.25221 15.7255 7.81119 15.5113 7.52638C15.2286 7.1406 14.8309 6.94786 14.319 6.94786C13.8095 6.94786 13.4114 7.1406 13.1288 7.52638ZM10.8804 8.05978L10.0757 5.0874H8.88335C9.00137 5.43432 9.12186 5.78192 9.24238 6.1296L9.24238 6.1296C9.36569 6.48534 9.48904 6.84117 9.6098 7.19646C9.97348 8.25221 10.2003 9.04802 10.3031 9.59124V12.6569H11.4362V9.59124L12.7998 5.0874H11.6535L10.8804 8.05978ZM21.267 24.6812C22.1432 24.5833 22.8709 23.9265 23.0759 23.0368C23.3677 21.7696 23.369 20.3857 23.369 19.0808V19.0563C23.369 17.7585 23.369 16.3843 23.0799 15.1247C22.8746 14.2347 22.1466 13.5782 21.2704 13.4803C19.1951 13.2486 17.0946 13.2474 15.0037 13.2486C12.9121 13.2474 10.8116 13.2486 8.73634 13.4803C7.86013 13.5779 7.13276 14.2347 6.92806 15.1247C6.6365 16.3923 6.63281 17.7758 6.63281 19.0808C6.63281 20.3857 6.63281 21.7696 6.92468 23.0368C7.12908 23.9268 7.85706 24.5833 8.73327 24.6812C10.8083 24.9129 12.909 24.9141 15 24.9129C17.0918 24.9141 19.1914 24.9129 21.267 24.6812ZM19.4043 17.4661C19.6964 17.084 20.0982 16.894 20.6156 16.894C21.1232 16.894 21.5256 17.0843 21.8083 17.4655C22.0203 17.7479 22.1213 18.1843 22.1213 18.7806V19.9367H20.0982V20.9268C20.0982 21.443 20.2682 21.7008 20.6156 21.7008C20.8645 21.7008 21.01 21.5658 21.0677 21.2954C21.0766 21.2404 21.0898 21.0155 21.0898 20.6104H22.1213V20.7574C22.1213 21.0836 22.1093 21.308 22.0998 21.4092C22.0661 21.6333 21.9863 21.8361 21.8635 22.0154C21.5836 22.4208 21.169 22.6206 20.6408 22.6206C20.1117 22.6206 19.7087 22.43 19.4169 22.0488C19.2014 21.7692 19.0918 21.3297 19.0918 20.7365V18.7812C19.0918 18.1849 19.1897 17.7485 19.4043 17.4661ZM20.0988 19.0952H21.1104V18.5786C21.1104 18.0627 20.9409 17.8043 20.6064 17.8043C20.2685 17.8043 20.0988 18.0624 20.0988 18.5786V19.0952ZM13.4509 21.2278C13.2266 21.5449 13.0145 21.7011 12.8113 21.7011C12.6763 21.7011 12.5993 21.6216 12.5747 21.4645C12.5655 21.4319 12.5655 21.3086 12.5655 21.0716V16.9622H11.554V21.3752C11.554 21.7695 11.588 22.0359 11.6433 22.2053C11.7448 22.4883 11.9695 22.6209 12.2948 22.6209C12.6671 22.6209 13.0489 22.3962 13.4509 21.9353V22.5442H14.4631V16.9622H13.4509V21.2278ZM16.3491 17.4994C16.6753 17.0973 17.0225 16.8942 17.3944 16.8942C17.7965 16.8942 18.0678 17.1059 18.2025 17.5246C18.2703 17.7489 18.305 18.1178 18.305 18.6463V20.8689C18.305 21.3854 18.2703 21.7571 18.2025 21.9937C18.0675 22.4093 17.7968 22.621 17.3944 22.621C17.0344 22.621 16.6876 22.4209 16.3491 22.0032V22.544H15.3378V15.0527H16.3491V17.4994ZM16.853 21.7012C17.1452 21.7012 17.2931 21.4526 17.2931 20.9481V18.5659C17.2931 18.0626 17.1449 17.8041 16.853 17.8041C16.687 17.8041 16.5179 17.8833 16.3488 18.0506V21.4523C16.5179 21.6217 16.687 21.7012 16.853 21.7012ZM7.88086 16.107H9.07012V22.5437H10.1952V16.107H11.4066V15.0527H7.88086V16.107ZM14.8066 11.0227C14.8066 11.5444 14.6485 11.8056 14.3192 11.8056C13.9896 11.8056 13.8313 11.5447 13.8313 11.0227V8.65C13.8313 8.12826 13.9896 7.868 14.3192 7.868C14.6485 7.868 14.8066 8.12795 14.8066 8.65V11.0227Z" fill="#222222"/>
</svg>
